<?xml version="1.0" encoding="UTF-8" standalone="no"?>
<svg width="400" height="400" viewBox="0 0 400 400" version="1.1" xmlns="http://www.w3.org/2000/svg">
    <rect width="400" height="400" rx="80" fill="#351B5A"/>
    <g transform="translate(200, 180) scale(1.4)">
        <g transform="translate(-160, -140)">
            <g transform="matrix(13.813671,0,0,13.813671,1629.669073,584.515455) scale(0.1)">
                <path d="M0,-37.978L-45.357,-11.792C-45.877,-11.492 -46.197,-10.937 -46.197,-10.337C-46.197,-9.737 -45.877,-9.182 -45.357,-8.882L-29.829,0.075C-29.573,0.223 -29.284,0.3 -28.989,0.3L-28.554,0.3C-28.259,0.3 -27.97,0.222 -27.714,0.075L1.451,-16.767C1.704,-16.913 1.914,-17.123 2.062,-17.375L2.29,-17.766C2.44,-18.022 2.519,-18.315 2.519,-18.612L2.519,-36.524C2.519,-37.123 2.199,-37.678 1.68,-37.978C1.16,-38.278 0.52,-38.278 0,-37.978" fill="#FFFFFF"/>
            </g>
            <g transform="matrix(13.813671,0,0,13.813671,1916.25026,1142.094628) scale(0.1)">
                <path d="M0,-45.325C0.52,-45.025 0.84,-44.471 0.84,-43.871L0.84,-43.87C0.84,-43.27 0.52,-42.715 0,-42.415L-27.936,-26.283C-28.455,-25.983 -28.775,-25.428 -28.775,-24.828L-28.775,7.428C-28.775,8.721 -30.174,9.528 -31.294,8.882L-46.806,-0.073C-47.065,-0.223 -47.279,-0.438 -47.427,-0.698L-47.646,-1.083C-47.79,-1.336 -47.865,-1.622 -47.865,-1.913C-47.865,-1.913 -47.912,-29.775 -47.865,-35.549C-47.862,-35.899 -47.756,-36.256 -47.585,-36.562C-47.408,-36.877 -47.14,-37.239 -46.806,-37.445C-44.874,-38.632 -35.994,-43.686 -35.994,-43.686L-17.643,-54.282C-17.388,-54.43 -17.098,-54.507 -16.803,-54.507L-16.357,-54.507C-16.062,-54.507 -15.773,-54.43 -15.518,-54.282L0,-45.325" fill="#FFFFFF"/>
            </g>
            <g transform="matrix(13.813671,0,0,13.813671,1205.681915,1024.643888) scale(0.1)">
                <path d="M0,-28.236C-0.148,-28.494 -0.361,-28.709 -0.619,-28.857L-13.577,-36.332L-13.577,-36.338C-13.577,-36.338 -27.317,-44.394 -30.336,-46.005C-30.734,-46.217 -31.291,-46.217 -31.689,-46.005C-34.708,-44.394 -48.452,-36.338 -48.452,-36.338L-48.452,-36.323L-61.233,-28.942C-61.491,-28.793 -61.704,-28.579 -61.852,-28.32L-62.072,-27.934C-62.217,-27.68 -62.294,-27.393 -62.294,-27.101L-62.294,-9.182C-62.294,-8.582 -61.973,-8.027 -61.453,-7.727C-60.934,-7.427 -60.294,-7.427 -59.774,-7.727L-31.854,-23.846C-31.334,-24.146 -30.694,-24.146 -30.174,-23.846L-19.508,-17.688C-18.668,-17.388 -18.668,-16.834 -18.668,-16.234L-18.668,16.012C-18.668,16.613 -18.347,17.168 -17.826,17.468L-17.823,17.47C-17.304,17.769 -16.665,17.768 -16.146,17.469L-0.619,8.513C-0.361,8.364 -0.148,8.149 0,7.891L0.22,7.505C0.365,7.251 0.442,6.964 0.442,6.672L0.442,-27.017C0.442,-27.31 0.365,-27.597 0.22,-27.851L0,-28.236Z" fill="#FFFFFF"/>
            </g>
        </g>
    </g>
    <text x="200" y="320" font-family="-apple-system, BlinkMacSystemFont, 'Segoe UI', Roboto, sans-serif" font-size="24" font-weight="700" letter-spacing="4" fill="#FFFFFF" text-anchor="middle">REDAKTION</text>
</svg>
