<svg xmlns="http://www.w3.org/2000/svg" xml:space="preserve" style="fill-rule:evenodd;clip-rule:evenodd;stroke-linejoin:round;stroke-miterlimit:2" viewBox="0 0 301 274"><path d="M206.904 105.391h65.378V149.8h-65.378z" style="fill:#fff;fill-rule:nonzero" transform="translate(-849.786 -439.129)scale(4.16667)"/><path d="M208.161 106.608h62.864v41.91h-62.864z" style="fill:#074ea2;fill-rule:nonzero" transform="translate(-849.786 -439.129)scale(4.16667)"/><path d="m238.253 115.74 1.327-.968 1.326.968-.504-1.566 1.347-.968h-1.661l-.508-1.584-.508 1.586-1.66-.002 1.346.968zm-6.864 1.844 1.326-.968 1.326.968-.504-1.565 1.346-.968h-1.66l-.508-1.587-.509 1.588-1.66-.001 1.347.968zm-3.697.915-.508 1.588-1.66-.002 1.347.968-.505 1.565 1.326-.968 1.327.968-.505-1.565 1.347-.968h-1.66zm-1.842 10.007 1.326.968-.504-1.565 1.346-.968h-1.66l-.508-1.587-.508 1.59-1.661-.003 1.347.968-.505 1.565zm2.351 5.311-.509-1.586-.508 1.588-1.66-.002 1.347.969-.505 1.565 1.326-.97 1.327.97-.505-1.565 1.347-.969zm5.032 5.033-.508-1.585-.508 1.587-1.66-.002 1.346.968-.504 1.565 1.327-.968 1.325.968-.504-1.565 1.347-.968zm6.856 1.823-.508-1.586-.508 1.588-1.66-.002 1.346.968-.504 1.566 1.327-.968 1.325.968-.504-1.566 1.347-.968zm6.856-1.823-.507-1.585-.509 1.587-1.659-.002 1.345.968-.504 1.565 1.327-.968 1.326.968-.506-1.565 1.348-.968zm5.034-5.033-.509-1.586-.509 1.588-1.659-.002 1.347.969-.505 1.565 1.326-.97 1.327.97-.506-1.565 1.347-.969zm3.483-6.895h-1.661l-.509-1.587-.508 1.588-1.66-.001 1.347.968-.504 1.566 1.325-.971 1.326.971-.504-1.566zm-5.318-4.324 1.326-.968 1.327.968-.506-1.566 1.347-.966h-1.659l-.509-1.586-.509 1.587-1.659-.001 1.347.966zm-3.687-9.132-.508 1.588-1.66-.003 1.345.969-.504 1.566 1.328-.97 1.325.97-.504-1.566 1.348-.969h-1.663z" style="fill:#fff200;fill-rule:nonzero" transform="translate(-849.786 -439.129)scale(4.16667)"/><path d="M204.173 160.485v-5.366h1.084v2.383l2.189-2.383h1.456l-2.02 2.09 2.13 3.276h-1.402l-1.475-2.518-.878.896v1.622zm6.208-1.944q0 .579.275.886a.87.87 0 0 0 .677.308.87.87 0 0 0 .675-.308q.273-.307.273-.893 0-.57-.273-.878a.87.87 0 0 0-.675-.308.87.87 0 0 0-.677.308q-.275.308-.275.885m-1.054-.054q0-.513.253-.992.252-.48.715-.732a2.1 2.1 0 0 1 1.034-.253q.882 0 1.446.573t.564 1.447q0 .883-.57 1.463-.569.58-1.432.58-.536 0-1.02-.242a1.66 1.66 0 0 1-.737-.708q-.253-.467-.253-1.136m7.28 1.998v-3.887h1.029v3.887zm0-4.414v-.952h1.029v.952zm-2.888.527h.571v-.293q0-.49.105-.732a.82.82 0 0 1 .384-.394q.28-.152.708-.152.44 0 .86.132l-.139.718a2 2 0 0 0-.472-.059q-.223 0-.32.105-.097.103-.097.4v.275h.769v.809h-.769v3.078h-1.029v-3.078h-.571zm8.54 3.887h-1.029v-1.984q0-.63-.066-.814a.57.57 0 0 0-.214-.288.6.6 0 0 0-.357-.102.83.83 0 0 0-.479.146.74.74 0 0 0-.291.388q-.08.242-.079.894v1.76h-1.028v-3.887h.955v.571q.508-.659 1.281-.659.34 0 .622.123.282.122.427.312.144.192.201.433t.057.691zm3.188-1.867q-.198.066-.626.158-.428.091-.56.179a.43.43 0 0 0-.201.362q0 .217.161.374a.56.56 0 0 0 .41.157.9.9 0 0 0 .53-.183.64.64 0 0 0 .246-.34q.04-.132.04-.502zm-1.376-.834-.934-.169q.158-.563.542-.834t1.142-.271q.688 0 1.025.163t.474.414.137.92l-.011 1.201q0 .512.05.756.049.243.184.521h-1.017a4 4 0 0 1-.099-.304 2 2 0 0 0-.037-.121q-.263.257-.563.385t-.641.128q-.6 0-.946-.326a1.08 1.08 0 0 1-.346-.823q0-.33.158-.588.156-.258.441-.395.283-.138.818-.24.72-.135.999-.252v-.103q0-.297-.146-.423-.147-.126-.553-.126-.275 0-.428.108-.155.108-.249.379m6.936 2.701h-1.029v-1.984q0-.63-.065-.814a.6.6 0 0 0-.214-.288.6.6 0 0 0-.357-.102.83.83 0 0 0-.48.146.74.74 0 0 0-.291.388q-.08.242-.079.894v1.76h-1.028v-3.887h.955v.571q.51-.659 1.281-.659.34 0 .623.123.28.122.426.312.145.192.201.433t.057.691zm.629 0v-.802l1.457-1.672q.358-.41.531-.582-.18.01-.472.014l-1.373.008v-.853h3.214v.728l-1.486 1.713-.524.568q.429-.027.531-.026h1.592v.904zm4.162 0v-3.887h1.029v3.887zm0-4.414v-.952h1.029v.952zm4.392 2.137q-.01-.446-.23-.679a.7.7 0 0 0-.535-.232.72.72 0 0 0-.556.245q-.22.246-.216.666zm-.058 1.04 1.025.172q-.198.564-.624.858-.427.295-1.067.295-1.014 0-1.501-.662-.385-.531-.385-1.34 0-.967.506-1.514.505-.547 1.277-.547.868 0 1.369.573t.479 1.755h-2.576q.01.457.248.712a.78.78 0 0 0 .594.254.63.63 0 0 0 .406-.132q.165-.131.249-.424m2.902 1.237h-1.028v-3.887h.955v.552q.246-.39.441-.516a.8.8 0 0 1 .445-.124q.351 0 .677.194l-.318.897q-.261-.17-.483-.169a.57.57 0 0 0-.366.119q-.151.12-.236.43-.087.312-.087 1.303zm3.715-3.887v.82h-.702v1.566q0 .476.02.555a.23.23 0 0 0 .091.13.3.3 0 0 0 .174.051q.142 0 .414-.099l.087.798q-.359.154-.812.154-.279 0-.501-.094a.73.73 0 0 1-.328-.241 1 1 0 0 1-.145-.401 5 5 0 0 1-.033-.725v-1.694h-.472v-.82h.472v-.772l1.033-.601v1.373zm3.866 3.887-1.567-3.887h1.08l.732 1.984.212.662q.085-.252.106-.333.052-.165.111-.329l.739-1.984h1.058l-1.545 3.887zm3.917-1.944q0 .579.274.886a.87.87 0 0 0 .677.308.86.86 0 0 0 .674-.308q.274-.307.274-.893 0-.57-.274-.878a.86.86 0 0 0-.674-.308.87.87 0 0 0-.677.308q-.274.308-.274.885m-1.055-.054q0-.513.253-.992a1.73 1.73 0 0 1 .715-.732 2.1 2.1 0 0 1 1.034-.253q.882 0 1.445.573.565.573.565 1.447 0 .883-.569 1.463-.57.58-1.433.58a2.26 2.26 0 0 1-1.02-.242 1.66 1.66 0 0 1-.737-.708q-.253-.467-.253-1.136m8.352 1.998h-1.028v-1.984q-.001-.63-.065-.814a.6.6 0 0 0-.214-.288.6.6 0 0 0-.357-.102.83.83 0 0 0-.48.146.74.74 0 0 0-.291.388q-.08.242-.079.894v1.76h-1.029v-3.887h.956v.571q.508-.659 1.281-.659.34 0 .623.123.281.122.425.312.144.192.202.433.057.241.056.691zm3.947-2.028q0 .622.172.901.25.402.695.402.355 0 .604-.302t.249-.902q0-.67-.241-.964a.76.76 0 0 0-.619-.295.77.77 0 0 0-.613.291q-.247.291-.247.869m2.745 2.028h-.955v-.571a1.55 1.55 0 0 1-.562.496 1.45 1.45 0 0 1-.654.163q-.67 0-1.147-.54t-.478-1.506q0-.988.465-1.503t1.175-.514q.651 0 1.127.542v-1.933h1.029zm3.323-2.277q-.01-.446-.23-.679a.7.7 0 0 0-.535-.232.72.72 0 0 0-.556.245q-.22.246-.216.666zm-.058 1.04 1.025.172q-.198.564-.624.858-.427.295-1.067.295-1.014 0-1.501-.662-.385-.531-.385-1.34 0-.967.506-1.514.505-.547 1.277-.547.867 0 1.369.573.501.573.479 1.755h-2.576q.01.457.248.712a.78.78 0 0 0 .594.254.63.63 0 0 0 .406-.132q.165-.131.249-.424m2.903 1.237h-1.029v-3.887h.955v.552q.246-.39.441-.516a.8.8 0 0 1 .445-.124q.351 0 .677.194l-.318.897q-.26-.17-.483-.169a.57.57 0 0 0-.366.119q-.15.12-.236.43-.087.312-.086 1.303zm-70.739 8.996v-5.366h3.979v.907h-2.895v1.19h2.694v.904h-2.694v1.46h2.998v.905zm7.551 0v-.583a1.5 1.5 0 0 1-.558.491q-.345.18-.73.179-.391 0-.703-.172a1 1 0 0 1-.45-.483q-.14-.31-.139-.86v-2.46h1.028v1.787q0 .82.057 1.004a.55.55 0 0 0 .207.293q.15.108.381.108a.8.8 0 0 0 .472-.145.73.73 0 0 0 .285-.358q.077-.214.077-1.049v-1.64h1.029v3.888zm3.006 0h-1.029v-3.888h.955v.553q.246-.391.441-.516a.8.8 0 0 1 .445-.124q.351 0 .677.194l-.318.896q-.26-.168-.483-.168a.57.57 0 0 0-.366.119q-.15.119-.236.43t-.086 1.303zm2.748-1.944q0 .579.275.886a.87.87 0 0 0 .677.307.86.86 0 0 0 .675-.307q.273-.308.273-.893 0-.571-.273-.879a.86.86 0 0 0-.675-.307.87.87 0 0 0-.677.307q-.275.308-.275.886m-1.054-.055q0-.513.253-.992.252-.48.715-.732a2.1 2.1 0 0 1 1.034-.252q.883 0 1.446.572.564.573.564 1.448 0 .882-.569 1.462-.57.58-1.433.58a2.26 2.26 0 0 1-1.02-.241 1.66 1.66 0 0 1-.737-.708q-.253-.466-.253-1.137m5.805-.011q0 .656.26.968a.8.8 0 0 0 .634.313.74.74 0 0 0 .596-.287q.238-.288.238-.943 0-.61-.245-.908a.76.76 0 0 0-.608-.296.79.79 0 0 0-.626.291q-.249.291-.249.862m-1.017-1.878h.959v.571a1.43 1.43 0 0 1 1.211-.658q.678 0 1.15.53.472.531.472 1.479 0 .974-.476 1.513-.475.54-1.153.54-.322 0-.584-.128a2 2 0 0 1-.551-.439v1.958h-1.028zm6.508-.688v-.882h.886v.882zm.245 2.709q-.198.066-.626.157-.428.092-.56.18a.43.43 0 0 0-.201.362q0 .216.161.374a.56.56 0 0 0 .41.157.9.9 0 0 0 .531-.183.65.65 0 0 0 .245-.341q.04-.131.04-.501zm-1.819-2.709v-.882h.882v.882zm.443 1.874-.934-.168q.158-.564.542-.835.384-.27 1.142-.27.689 0 1.025.162.338.163.474.414.138.25.137.921l-.011 1.2q0 .513.05.756.049.243.185.522h-1.018a4 4 0 0 1-.099-.304l-.036-.121a1.9 1.9 0 0 1-.564.384q-.3.129-.641.128-.6 0-.946-.325a1.1 1.1 0 0 1-.346-.824q0-.329.158-.587.157-.258.441-.396.284-.137.818-.239.721-.136.999-.253v-.102q0-.297-.146-.423-.147-.127-.553-.127-.275 0-.428.108-.154.11-.249.379m3.4 2.702v-3.888h1.029v3.888zm0-4.415v-.951h1.029v.951zm1.721 3.305 1.032-.157a.76.76 0 0 0 .267.456q.201.156.564.155.398 0 .6-.146a.33.33 0 0 0 .135-.275.27.27 0 0 0-.073-.194q-.077-.072-.344-.135-1.245-.274-1.578-.501a1 1 0 0 1-.46-.875q0-.505.398-.849.4-.344 1.237-.344.798 0 1.186.259.388.26.535.769l-.97.179a.6.6 0 0 0-.236-.347q-.175-.121-.496-.121-.406 0-.582.114a.24.24 0 0 0-.117.208q0 .11.102.187.14.102.961.289.822.186 1.147.458.323.273.323.764 0 .535-.447.919t-1.321.384q-.795 0-1.258-.322a1.48 1.48 0 0 1-.605-.875m7.92-1.628-1.014.183q-.05-.304-.232-.458a.7.7 0 0 0-.47-.153.77.77 0 0 0-.614.265q-.228.266-.228.887 0 .692.232.978.232.285.624.285a.7.7 0 0 0 .48-.166q.186-.166.263-.573l1.011.172q-.159.696-.604 1.051-.447.354-1.197.354-.853 0-1.36-.538-.507-.537-.507-1.489 0-.963.509-1.499t1.376-.536q.71 0 1.129.305.42.306.602.932m1.805-2.628v1.972q.497-.58 1.189-.581.356 0 .641.131.286.132.43.337t.198.454.053.772v2.281h-1.029v-2.054q0-.61-.058-.776a.5.5 0 0 0-.207-.261.66.66 0 0 0-.372-.098.85.85 0 0 0-.457.125.7.7 0 0 0-.295.375q-.093.25-.093.741v1.948h-1.029v-5.366zm5.864 3.089q-.011-.447-.231-.679a.7.7 0 0 0-.534-.233.72.72 0 0 0-.557.246q-.219.245-.216.666zm-.059 1.039 1.025.172q-.198.564-.624.859-.426.294-1.067.294-1.014 0-1.501-.662-.384-.53-.384-1.34 0-.967.505-1.513.505-.547 1.278-.547.867 0 1.368.572.502.573.48 1.755h-2.577q.011.459.249.712.237.255.593.255a.63.63 0 0 0 .406-.132q.165-.132.249-.425m5.454 1.238h-1.029v-1.984q0-.63-.066-.815a.57.57 0 0 0-.571-.39.82.82 0 0 0-.479.147.74.74 0 0 0-.291.388q-.08.242-.079.893v1.761h-1.029v-3.888h.956v.571q.508-.658 1.281-.658.34 0 .622.122.282.123.427.313.144.19.201.432a3.2 3.2 0 0 1 .057.692zm3.126-5.366h1.083v2.906q0 .692.04.896.07.33.332.53.262.199.715.199.462 0 .696-.189a.75.75 0 0 0 .282-.462q.047-.274.047-.912v-2.968h1.084v2.818q0 .967-.088 1.365a1.5 1.5 0 0 1-.325.674 1.6 1.6 0 0 1-.63.437q-.396.163-1.034.163-.768 0-1.165-.177a1.7 1.7 0 0 1-.628-.462 1.5 1.5 0 0 1-.303-.594q-.106-.462-.106-1.362zm8.949 5.366h-1.029v-1.984q0-.63-.066-.815a.56.56 0 0 0-.214-.287.6.6 0 0 0-.357-.103.82.82 0 0 0-.479.147.74.74 0 0 0-.292.388q-.078.242-.078.893v1.761h-1.029v-3.888h.956v.571q.508-.658 1.281-.658.341 0 .622.122.283.123.427.313t.201.432a3.2 3.2 0 0 1 .057.692zm1.043 0v-3.888h1.029v3.888zm0-4.415v-.951h1.029v.951zm2.899 2.471q0 .579.274.886a.87.87 0 0 0 .678.307.87.87 0 0 0 .675-.307q.273-.308.273-.893 0-.571-.273-.879a.87.87 0 0 0-.675-.307.87.87 0 0 0-.678.307q-.274.308-.274.886m-1.054-.055q0-.513.253-.992a1.73 1.73 0 0 1 .715-.732 2.1 2.1 0 0 1 1.034-.252q.882 0 1.446.572.564.573.564 1.448 0 .882-.57 1.462-.569.58-1.432.58-.536 0-1.02-.241a1.66 1.66 0 0 1-.737-.708q-.253-.466-.253-1.137m8.353 1.999h-1.029v-1.984q0-.63-.066-.815a.57.57 0 0 0-.571-.39.82.82 0 0 0-.479.147.74.74 0 0 0-.291.388q-.08.242-.079.893v1.761h-1.029v-3.888h.956v.571q.508-.658 1.281-.658.34 0 .622.122.282.123.427.313.144.19.201.432a3.2 3.2 0 0 1 .057.692z" style="fill:#074ea2;fill-rule:nonzero" transform="translate(-849.786 -439.129)scale(4.16667)"/></svg>