<?xml version="1.0" encoding="UTF-8" standalone="no"?>
<!DOCTYPE svg PUBLIC "-//W3C//DTD SVG 1.1//EN" "http://www.w3.org/Graphics/SVG/1.1/DTD/svg11.dtd">
<svg width="100%" height="100%" viewBox="0 0 701 628" version="1.1" xmlns="http://www.w3.org/2000/svg" xmlns:xlink="http://www.w3.org/1999/xlink" xml:space="preserve" xmlns:serif="http://www.serif.com/" style="fill-rule:evenodd;clip-rule:evenodd;stroke-linejoin:round;stroke-miterlimit:2;">
    <g transform="matrix(1,0,0,1,-3535.433333,-476.632778)">
        <g transform="matrix(5.555556,0,0,5.555556,0,0)">
            <g transform="matrix(0.772594,0.6349,0.6349,-0.772594,685.19482,111.313533)">
                <path d="M9.168,2.989C8.617,3.107 -27.06,10.794 -27.06,10.794L9.168,40.565C9.168,40.565 9.781,4.03 9.805,3.498C9.83,2.967 9.721,2.869 9.168,2.989" style="fill:rgb(148,193,31);fill-rule:nonzero;"/>
            </g>
            <g transform="matrix(-1,0,0,1,743.0988,157.0504)">
                <path d="M26.509,-63.099C13.236,-56.835 4.287,-45.057 4.287,-31.551C4.287,-18.043 13.236,-6.266 26.509,0C10.78,-5.856 0,-17.78 0,-31.551C0,-45.319 10.78,-57.245 26.509,-63.099" style="fill:rgb(0,91,145);fill-rule:nonzero;"/>
            </g>
            <g transform="matrix(0,-1,-1,0,659.3322,134.4677)">
                <path d="M8.968,8.966C22.475,8.966 34.253,0.017 40.516,-13.255C34.663,2.472 22.736,13.253 8.968,13.253C-4.803,13.253 -16.727,2.472 -22.582,-13.255C-16.317,0.017 -4.539,8.966 8.968,8.966" style="fill:rgb(0,91,145);fill-rule:nonzero;"/>
            </g>
            <g transform="matrix(1,0,0,1,676.9463,123.3829)">
                <path d="M0,-2.558C0,5.473 7.899,11.979 17.643,11.979C27.387,11.979 35.285,5.473 35.285,-2.558C35.285,-7.537 32.234,-11.918 27.601,-14.537C22.611,-8.266 18.201,-2.72 18.06,-2.53C17.732,-2.089 17.582,-2.082 17.217,-2.541C17.061,-2.737 12.658,-8.274 7.677,-14.534C3.049,-11.912 0,-7.535 0,-2.558" style="fill:rgb(0,91,145);fill-rule:nonzero;"/>
            </g>
            <g transform="matrix(1,0,0,1,665.7212,126.5458)">
                <path d="M0,-3.384C0,9.757 12.923,20.407 28.867,20.407C44.812,20.407 57.735,9.757 57.735,-3.384C57.735,-12.057 52.091,-19.637 43.674,-23.791C42.659,-22.516 41.617,-21.21 40.584,-19.909C46.089,-16.819 49.716,-11.623 49.716,-5.721C49.716,3.769 40.382,11.459 28.867,11.459C17.352,11.459 8.02,3.769 8.02,-5.721C8.02,-11.623 11.644,-16.814 17.146,-19.907C16.112,-21.205 15.072,-22.513 14.056,-23.788C5.64,-19.634 0,-12.055 0,-3.384" style="fill:rgb(0,91,145);fill-rule:nonzero;"/>
            </g>
            <g transform="matrix(1,0,0,1,735.4834,129.8607)">
                <path d="M0,-4.361C0,-16.961 -8.409,-27.924 -20.839,-33.702C-21.884,-32.388 -23.069,-30.901 -24.328,-29.319C-15.039,-24.689 -8.819,-16.298 -8.819,-6.699C-8.819,7.9 -23.178,19.732 -40.896,19.732C-58.611,19.732 -72.97,7.9 -72.97,-6.699C-72.97,-16.297 -66.753,-24.686 -57.464,-29.317C-58.725,-30.899 -59.908,-32.386 -60.953,-33.702C-73.382,-27.923 -81.791,-16.96 -81.791,-4.361C-81.791,14.252 -63.484,29.341 -40.896,29.341C-18.306,29.341 0,14.252 0,-4.361" style="fill:rgb(0,91,145);fill-rule:nonzero;"/>
            </g>
            <g transform="matrix(1,0,0,1,0,-228.07)">
                <path d="M636.378,426.255L644.375,426.255L644.375,397.094L636.378,397.094L636.378,426.255ZM648.416,426.255L656.415,426.255L656.415,417.924L660.413,417.924C667.547,417.924 672.781,414.299 672.781,407.383L672.781,407.301C672.781,400.886 668.081,397.094 660.825,397.094L648.416,397.094L648.416,426.255ZM656.415,411.591L656.415,403.886L660.208,403.886C663.052,403.886 664.824,405.177 664.824,407.675L664.824,407.76C664.824,410.05 663.052,411.591 660.249,411.591L656.415,411.591ZM685.28,426.838C692.289,426.838 697.194,422.923 697.194,416.467L697.194,416.382C697.194,410.05 692.494,407.134 687.3,407.134C685.363,407.134 684.001,407.55 682.682,408.176L682.93,403.76L695.916,403.76L695.916,397.094L676.622,397.094L675.797,411.842L680.54,414.548C681.898,413.716 683.382,413.091 685.156,413.091C687.67,413.091 689.402,414.342 689.402,416.467L689.402,416.548C689.402,418.631 687.836,419.966 685.197,419.966C682.724,419.966 680.497,418.798 678.188,416.799L673.613,422.214C676.622,425.047 680.169,426.838 685.28,426.838M711.942,426.838C720.186,426.838 725.341,419.923 725.341,411.676L725.341,411.591C725.341,403.343 720.227,396.512 712.025,396.512C703.819,396.512 698.626,403.427 698.626,411.676L698.626,411.758C698.626,420.007 703.738,426.838 711.942,426.838M712.025,419.673C708.809,419.673 706.664,416.341 706.664,411.676L706.664,411.591C706.664,406.925 708.767,403.636 711.942,403.636C715.156,403.636 717.301,407.01 717.301,411.676L717.301,411.758C717.301,416.382 715.239,419.673 712.025,419.673M740.271,426.838C748.519,426.838 753.671,419.923 753.671,411.676L753.671,411.591C753.671,403.343 748.56,396.512 740.355,396.512C732.152,396.512 726.958,403.427 726.958,411.676L726.958,411.758C726.958,420.007 732.068,426.838 740.271,426.838M740.355,419.673C737.141,419.673 734.996,416.341 734.996,411.676L734.996,411.591C734.996,406.925 737.099,403.636 740.271,403.636C743.488,403.636 745.633,407.01 745.633,411.676L745.633,411.758C745.633,416.382 743.572,419.673 740.355,419.673" style="fill:rgb(157,156,156);fill-rule:nonzero;"/>
            </g>
            <g transform="matrix(1,0,0,1,758.5796,169.4538)">
                <path d="M0,7.959C2.186,7.959 3.92,6.139 3.92,3.98L3.92,3.956C3.92,1.796 2.209,0 0,0C-2.186,0 -3.924,1.819 -3.924,3.98L-3.924,4.001C-3.924,6.163 -2.211,7.959 0,7.959M0,7.526C-1.985,7.526 -3.473,5.936 -3.473,4.001L-3.473,3.98C-3.473,2.046 -1.962,0.431 0,0.431C1.981,0.431 3.471,2.024 3.471,3.956L3.471,3.98C3.471,5.911 1.959,7.526 0,7.526M-1.758,5.98L-0.475,5.98L-0.475,4.775L-0.091,4.775L0.72,5.98L2.186,5.98L1.216,4.547C1.736,4.321 2.05,3.888 2.05,3.229C2.05,2.273 1.328,1.796 0.247,1.796L-1.758,1.796L-1.758,5.98ZM-0.475,3.797L-0.475,2.888L0.202,2.888C0.563,2.888 0.766,3.047 0.766,3.343C0.766,3.616 0.563,3.797 0.18,3.797L-0.475,3.797Z" style="fill:rgb(157,156,156);fill-rule:nonzero;"/>
            </g>
        </g>
    </g>
</svg>
