<?xml version="1.0" encoding="UTF-8"?>
<!-- Created with Inkscape (http://www.inkscape.org/) -->
<svg width="365.85mm" height="282.72mm" version="1.1" viewBox="0 0 1382.7 1068.6" xmlns="http://www.w3.org/2000/svg">
 <g transform="translate(189.52 187.3)">
  <g>
   <ellipse cx="501.98" cy="346.98" rx="343.46" ry="345.3" fill="#7ab0df"/>
   <ellipse cx="199.95" cy="346.31" rx="200.5" ry="201.68" fill="#fab301"/>
   <path d="m222.71 145.89c-34.676 43.297-62.756 121.63-64.188 187.84-1.6016 74.083 15.551 142.04 62.67 213.13 117.33-15.4 179.08-110.56 179.25-200.55 0.17379-89.615-62.722-186.22-177.74-200.42z" fill="#96843a"/>
  </g>
  <g fill="#fff">
   <path d="m372.03 468.32 5.9387-9.0071c37.965 35.122 58.083 44.054 92.491 52.016 26.359 6.0997 51.026 2.104 80.998-4.7075l7.2922 8.2363c-30.847 8.4105-60.138 13.845-89.379 7.5605-36.236-7.7884-67.568-25.911-97.341-54.098z"/>
   <path d="m292.25 154.56-9.6318-4.6739c75.527-81.472 142.8-94.411 224.25-98.682 55.006-2.8845 136.11 30.249 157.49 50.444l-11.072 5.6298c-36.217-23.128-95.471-48.196-146.49-45.456-77.699 4.1739-142.98 17.757-214.54 92.738z"/>
   <path d="m331.43 182.32c56.298-54.646 94.081-65.543 148.72-72.851 41.857-5.599 74.068 4.2692 124.43 23.928l-8.5812 7.3596c-42.51-18.615-76.951-25.541-115.72-20.094-51.402 7.2231-91.764 19.4-140.36 67.929z"/>
   <path d="m377.51 231.89c-5.5743-8.0476-5.5743-8.0476-5.5743-8.0476 24.07-25.934 55.389-44.919 88.847-53.104 32.001-7.8283 66.995-4.6095 98.615 5.8781l-6.8712 8.187c-26.567-8.0876-59.005-10.959-87.308-3.9991-32.803 8.0663-42.031 12.55-87.709 51.085z"/>
   <path d="m340.56 502.44c28.939 33.081 77.044 57.662 122.64 66.025 43.649 8.0057 86.714 2.7411 131.96-17.471l9.3948 6.494c-41.777 23.513-92.763 30.177-139.15 22.656-49.221-7.9802-96.941-31.117-132.73-69.496 7.8814-8.208 0 0 7.8814-8.208z"/>
   <path d="m283.31 541.18 9.9954-5.3592c61.292 66.087 116.42 84.868 184.77 92.514 59.934 6.7054 112-6.3086 175.73-43.339l10.307 5.1308c-58.216 39.002-122.88 56.657-187 49.855-71.992-7.6364-148.01-43.064-193.8-98.802z"/>
  </g>
  <ellipse cx="756.31" cy="346.43" rx="247.93" ry="249.61" fill="#c7d401"/>
  <path d="m739.35 97.408c48.877 39.97 110.93 158.64 110.97 249.91 0.0453 90.61-60.078 210.31-109.92 248.21-81.448-7.9764-126.67-36.61-169-83.242-39.644-43.677-62.704-104.02-63.026-165.86-0.25948-58.383 20.525-117.58 57.868-160.12 42.92-48.888 92.572-81.85 173.1-88.907z" fill="#729a39"/>
  <g transform="matrix(1.2554 0 0 1.2657 .13878 -.44505)">
   <g fill="#fff">
    <path d="m231.19 204.06 0.52419 139.09 34.412-0.28081-0.21842-138.75z"/>
    <path d="m522.8 343.04-0.27393-139 63.537 0.20445c36.159 2.1044 42.295 22.907 43.78 43.402 1.1267 15.543-10.825 35.096-28.106 37.358l34.479 58.204-39.651-0.0133-28.453-54.608-11.894 0.1561 0.0866 54.337z"/>
    <path d="m56.408 342.93-0.11687-138.86 47.89-0.13315 30.442 85.169 29.929-85.159 48.673 0.0884 0.59803 139.57-34.736-0.41248-0.0762-94.885-32.337 94.667-25.596 0.12149-31.398-94.337 0.34692 94.397z"/>
   </g>
   <path d="m556.03 233.09 24.53 0.39714c8.9509-0.42742 14.671 5.7574 15.056 12.207 0.36744 6.1518-4.096 13.067-12.873 13.27l-26.443 0.89723z" fill="#729a39"/>
   <path d="m285.33 343.52-0.0612-139.46 94.213 0.0681 0.0338 31.221-60.979-0.13458-0.11099 23.461 56.278 0.27652 0.34198 31.002-57.018 0.23166 0.41405 52.882z" fill="#fff"/>
   <path d="m367.26 342.78 59.622-138.76 27.62-0.11419 60.296 139.57-38.409-0.3266-10.283-28.367-50.76-0.17503-11.572 28.605z" fill="#fff"/>
   <path d="m426.21 285 26.892-0.10167-13.076-34.779z" fill="#729a39"/>
   <path d="m643.32 343-0.58985-138.93 95.626 0.32949-0.11512 30.598-62.447 0.29097 0.51679 21.238 58.96 0.54153 0.55263 30.877-58.958 0.0735 0.0778 23.714 65.533 0.43425-0.21615 30.744z" fill="#fff"/>
  </g>
 </g>
</svg>
