<?xml version="1.0" encoding="UTF-8" standalone="no"?>
<!DOCTYPE svg PUBLIC "-//W3C//DTD SVG 1.1//EN" "http://www.w3.org/Graphics/SVG/1.1/DTD/svg11.dtd">
<svg width="100%" height="100%" viewBox="0 0 507 397" version="1.1" xmlns="http://www.w3.org/2000/svg" xmlns:xlink="http://www.w3.org/1999/xlink" xml:space="preserve" xmlns:serif="http://www.serif.com/" style="fill-rule:evenodd;clip-rule:evenodd;stroke-linecap:round;">
    <g transform="matrix(1,0,0,1,-110,-163.768944)">
        <path d="M430,384L430,536C430,549.246 419.246,560 406,560L134,560C120.754,560 110,549.246 110,536L110,384C110,370.754 120.754,360 134,360L406,360C419.246,360 430,370.754 430,384Z" style="fill:rgb(17,17,17);"/>
        <g transform="matrix(1,0,0,1,270.96,488)">
            <text x="-109.104px" y="0px" style="font-family:'Helvetica-Bold', 'Helvetica';font-weight:700;font-size:96px;fill:white;">R<tspan x="-41.696px 15.024px 39.776px " y="0px 0px 0px ">FID</tspan></text>
        </g>
        <g transform="matrix(1,0,0,1,-38,-13)">
            <path d="M470,280C510,295 539,327 554,369" style="fill:none;fill-rule:nonzero;stroke:rgb(17,17,17);stroke-width:20px;"/>
        </g>
        <g transform="matrix(1,0,0,1,-47,-21)">
            <path d="M468,342C489,350 505,366 513,387" style="fill:none;fill-rule:nonzero;stroke:rgb(17,17,17);stroke-width:20px;"/>
        </g>
        <g transform="matrix(1,0,0,1,-34,-9)">
            <path d="M470,214C537,239 586,293 609,366" style="fill:none;fill-rule:nonzero;stroke:rgb(17,17,17);stroke-width:20px;"/>
        </g>
    </g>
</svg>
