<svg xmlns="http://www.w3.org/2000/svg" xml:space="preserve" style="fill-rule:evenodd;clip-rule:evenodd;stroke-linecap:square;stroke-linejoin:bevel;stroke-miterlimit:10" viewBox="0 0 6386 6386"><path d="M4728.28 914.281c0-58.423-70-105.854-156.21-105.854H979.118c-86.217 0-156.215 47.431-156.215 105.854V3348.92c0 58.42 69.998 105.85 156.215 105.85H4572.07c86.21 0 156.21-47.43 156.21-105.85z" style="fill:#9273b7" transform="matrix(1.63503 0 0 2.41291 -1345.47 -1950.66)"/><path d="M4728.28 887.817c0-43.817-52.5-79.39-117.16-79.39H940.065c-64.663 0-117.162 35.573-117.162 79.39V3375.38c0 43.82 52.499 79.39 117.162 79.39H4611.12c64.66 0 117.16-35.57 117.16-79.39z" style="fill:#a186bf" transform="matrix(1.59974 0 0 2.36084 -1247.53 -1839.67)"/><path d="m374.79 321.72.14-.36.15-.29.07-.29.14-.28.15-.36.14-.29.21-.29.15-.28.14-.29.15-.29.21-.29.14-.28.22-.29.14-.22.22-.28.21-.29.22-.29.14-.21.22-.29.21-.29.22-.21.29-.22.21-.29.22-.21.21-.22.22-.28.29-.22.21-.21.29-.22.21-.22.29-.21.29-.22.21-.21.29-.15.29-.21.29-.22.21-.14.29-.22.29-.14.28-.21.29-.15.29-.14.29-.15.35-.14.29-.14.29-.15.29-.14.28-.14 1.15-.51 1.08-.57 1.08-.58 1-.64 1.01-.72.93-.72.93-.79.87-.86.86-.86.79-.93.72-.94.71-1 .65-1.01.57-1.08.58-1.07.5-1.08.43-1.15.36-1.15.29-1.15.29-1.22.21-1.22.15-1.15.14-2.44-.14-2.44-.15-1.15-.21-1.22-.29-1.22-.29-1.15-.36-1.15-.43-1.15-.5-1.08-.58-1.07-.57-1.08-.65-1.01-.71-1-.72-.94-.79-.93-.86-.86-.87-.86-.93-.79-.93-.72-1.01-.72-1-.64-1.08-.58-1.08-.57-1.15-.51-.28-.14-.29-.14-.29-.15-.29-.14-.35-.14-.29-.15-.29-.14-.29-.15-.28-.21-.29-.14-.29-.22-.21-.14-.29-.22-.29-.21-.29-.15-.21-.21-.29-.22-.29-.21-.21-.22-.29-.22-.21-.21-.29-.22-.22-.28-.21-.22-.22-.21-.21-.29-.29-.22-.22-.21-.21-.29-.22-.29-.14-.21-.22-.29-.21-.29-.22-.28-.14-.22-.22-.29-.14-.28-.21-.29-.15-.29-.14-.29-.15-.28-.21-.29-.14-.29-.15-.36-.14-.28-.07-.29-.15-.29-.14-.36-.22-.5-.21-.57-.22-.58-.21-.57-.29-.51-.21-.57-.22-.58-.29-.57-.21-.5-.29-.58-.22-.5-.28-.57-.22-.51-.29-.57-.28-.5-.29-.58-.22-.5-.28-.58-.29-.5-.29-.57-.28-.51-.58-1-.36-.58-.29-.5-.28-.5-.29-.5-.36-.58-.29-.5-.36-.5-.28-.51-.36-.5-.29-.5-.36-.5-.29-.51-.35-.5-.72-1-.36-.44-.29-.5-.72-1-.36-.43-.35-.51-.44-.5-.35-.43-.36-.5-.36-.43-.22-.29-.21-.29-.22-.21-.14-.29-.22-.29-.14-.29-.22-.28-.14-.29-.22-.29-.14-.29-.14-.28-.15-.29-.14-.29-.14-.28-.15-.29-.14-.36-.15-.29-.14-.28-.07-.36-.14-.29-.15-.29-.07-.36-.07-.28-.15-.36-.07-.29-.07-.36-.07-.29-.07-.36-.07-.28-.08-.36-.07-.29v-.36l-.07-.36v-.29l-.07-.35v-.65l-.07-.36v-1.65l.07-.29v-.72l.07-.28v-.36l.14-1.22.08-1.22v-2.37l-.15-1.23-.14-1.22-.22-1.15-.28-1.22-.36-1.15-.43-1.14-.44-1.15-.5-1.08-.57-1.08-.58-1-.72-1.08-.71-.93-.72-.94-.86-.93-.79-.86-.94-.79-.93-.79-.93-.72-1.01-.72-1.08-.64-1-.58-1.15-.5-1.08-.5-1.15-.44-1.15-.35-1.22-.29-1.15-.22-1.22-.21-1.22-.15-1.15-.07h-1.22l-1.22.07-1.22.08-1.22.21-1.15.22-1.22.28-2.3.72-1.07.5-1.15.51-1.08.5-1.01.65-1 .64-1.01.72-.28.22-.29.21-.22.14-.28.22-.29.22-.58.28-.28.22-.29.14-.29.15-.28.14-.29.14-.36.15-.58.28-.28.15-.36.14-.29.07-.29.15-.36.07-.28.14-.36.07-.29.08-.29.14-.36.07-.28.07-.36.07-.36.08h-.29l-.36.07-.28.07h-.36l-.36.07h-.29l-.36.07h-2.3l-.36-.07h-.64l-.36-.07h-.29l-.36-.07-.57-.07-.58-.15-.64-.07-.58-.07-.57-.07-.65-.07-.57-.08-.58-.07h-.64l-.58-.07-.57-.07-.65-.07h-.57l-.58-.08h-.64l-.58-.07h-.57l-.65-.07h-2.37l-.65-.07h-1.14l-.65.07h-2.37l-.65.07h-.57l-.58.07h-.64l-.58.08h-.57l-.65.07-.57.07-.58.07h-.64l-.58.07-.57.08-.65.07-.57.07-.58.07-.64.07-.58.15-.57.07-.36.07h-.29l-.36.07h-.64l-.36.07h-2.3l-.36-.07h-.29l-.36-.07h-.36l-.28-.07-.36-.07h-.29l-.36-.08-.36-.07-.28-.07-.36-.07-.29-.14-.29-.08-.36-.07-.28-.14-.36-.07-.29-.15-.29-.07-.36-.14-.28-.15-.58-.28-.36-.15-.29-.14-.28-.14-.29-.15-.29-.14-.28-.22-.58-.28-.29-.22-.28-.22-.22-.14-.29-.21-.28-.22-1.01-.72-1-.64-1.01-.65-1.08-.5-1.15-.51-1.07-.5-2.3-.72-1.22-.28-1.15-.22-1.22-.21-1.22-.08-1.22-.07h-1.22l-1.15.07-1.22.15-1.22.21-1.15.22-1.22.29-1.15.35-1.15.44-1.08.5-1.15.5-1 .58-1.08.64-1.01.72-.93.72-.93.79-.94.79-.79.86-.86.93-.72.94-.71.93-.72 1.08-.58 1-.57 1.08-.5 1.08-.44 1.15-.43 1.14-.36 1.15-.28 1.22-.22 1.15-.14 1.22-.15 1.23v2.37l.08 1.22.14 1.22v.36l.07.28v.72l.07.29v1.65l-.07.36v.65l-.07.35v.29l-.07.36v.36l-.07.29-.08.36-.07.28-.07.36-.07.29-.07.36-.07.29-.15.36-.07.28-.07.36-.15.29-.14.29-.07.36-.14.28-.15.29-.14.36-.15.29-.14.28-.14.29-.15.29-.14.28-.14.29-.22.29-.14.29-.22.28-.14.29-.22.29-.14.29-.22.21-.21.29-.22.29-.36.43-.36.5-.35.43-.43.5-.36.51-.36.43-.72 1-.29.5-.36.44-.72 1-.35.5-.29.51-.36.5-.29.5-.36.5-.28.51-.36.5-.29.5-.36.58-.29.5-.28.5-.29.5-.36.58-.58 1-.28.51-.29.57-.29.5-.28.58-.22.5-.29.58-.28.5-.29.57-.22.51-.28.57-.22.5-.29.58-.21.5-.29.57-.21.58-.22.57-.29.51-.21.57-.22.58-.21.57-.22.5-.14.36-.15.29-.07.29-.14.28-.15.36-.14.29-.21.29-.15.28-.14.29-.15.29-.21.29-.14.28-.22.29-.14.22-.22.28-.21.29-.22.29-.14.21-.22.29-.21.29-.22.21-.29.22-.21.29-.22.21-.21.22-.22.28-.29.22-.21.21-.29.22-.21.22-.29.21-.29.22-.21.21-.29.15-.29.21-.29.22-.21.14-.29.22-.29.14-.28.21-.29.15-.29.14-.29.15-.35.14-.29.14-.29.15-.29.14-.28.14-1.15.51-1.08.57-1.08.58-1 .64-1.01.72-.93.72-.93.79-.87.86-.86.86-.79.93-.72.94-.71 1-.65 1.01-.57 1.08-.58 1.07-.5 1.08-.43 1.15-.36 1.15-.29 1.15-.29 1.22-.21 1.22-.15 1.15-.14 2.44.14 2.44.15 1.15.21 1.22.29 1.22.29 1.15.36 1.15.43 1.15.5 1.08.58 1.07.57 1.08.65 1.01.71 1 .72.94.79.93.86.86.87.86.93.79.93.72 1.01.72 1 .64 1.08.58 1.08.57 1.15.51.28.14.29.14.29.15.29.14.35.14.29.15.29.14.29.15.28.21.29.14.29.22.21.14.29.22.29.21.29.15.21.21.29.22.29.21.21.22.29.22.21.21.29.22.22.28.21.22.22.21.21.29.29.22.22.21.21.29.22.29.14.21.22.29.21.29.22.28.14.22.22.29.14.28.21.29.15.29.14.29.15.28.21.29.14.29.15.36.14.28.07.29.15.29.14.36.22.5.21.57.22.58.21.57.29.51.22.57.21.58.29.57.21.5.29.58.22.5.28.57.22.51.29.57.28.5.29.58.22.5.28.58.29.5.29.57.28.51.58 1 .36.58.29.5.28.5.29.5.36.58.29.5.36.5.28.51.36.5.29.5.36.5.29.51.35.5.72 1 .36.44.29.5.72 1 .36.43.36.51.43.5.35.43.36.5.36.43.22.29.21.29.22.21.14.29.22.29.14.29.22.28.14.29.22.29.14.29.14.28.15.29.14.29.14.28.15.29.14.36.15.29.14.28.07.36.14.29.15.29.07.36.07.28.15.36.07.29.07.36.07.29.07.36.07.28.08.36.07.29v.36l.07.36v.29l.07.35v.65l.07.36v1.65l-.07.29v.72l-.07.28v.36l-.14 1.22-.08 1.22v2.37l.15 1.23.14 1.22.22 1.15.28 1.22.36 1.15.43 1.14.44 1.15.5 1.08.57 1.08.58 1 .72 1.08.71.93.72.94.86.93.79.86.94.79.93.79.93.72 1.01.72 1.08.64 1 .58 1.15.5 1.08.5 1.15.44 1.15.35 1.22.29 1.15.22 1.22.21 1.22.15 1.15.07h1.22l1.22-.07 1.22-.08 1.22-.21 1.15-.22 1.22-.28 2.3-.72 1.07-.5 1.15-.51 1.08-.5 1.01-.65 1-.64 1.01-.72.28-.22.29-.21.22-.14.28-.22.29-.22.58-.28.28-.22.29-.14.29-.15.28-.14.29-.14.36-.15.58-.28.28-.15.36-.14.29-.07.29-.15.36-.07.28-.14.36-.07.29-.08.29-.14.36-.07.28-.07.36-.07.36-.08h.29l.36-.07.28-.07h.36l.36-.07h.29l.36-.07h2.3l.36.07h.64l.36.07h.29l.36.07.57.07.58.15.64.07.58.07.57.07.65.07.57.08.58.07h.64l.58.07.57.07.65.07h.57l.58.08h.64l.58.07h.57l.65.07h2.37l.65.07h1.14l.65-.07h2.37l.65-.07h.57l.58-.07h.64l.58-.08h.57l.65-.07.57-.07.58-.07h.64l.58-.07.57-.08.65-.07.57-.07.58-.07.64-.07.58-.15.57-.07.36-.07h.29l.36-.07h.64l.36-.07h2.3l.36.07h.29l.36.07h.36l.28.07.36.07h.29l.36.08.36.07.28.07.36.07.29.14.29.08.36.07.28.14.36.07.29.15.29.07.36.14.28.15.58.28.36.15.29.14.28.14.29.15.29.14.28.22.58.28.29.22.28.22.22.14.29.21.28.22 1.01.72 1 .64 1.01.65 1.08.5 1.15.51 1.07.5 2.3.72 1.22.28 1.15.22 1.22.21 1.22.08 1.22.07h1.22l1.15-.07 1.22-.15 1.22-.21 1.15-.22 1.22-.29 1.15-.35 1.15-.44 1.08-.5 1.15-.5 1-.58 1.08-.64 1.01-.72.93-.72.93-.79.94-.79.79-.86.86-.93.72-.94.71-.93.72-1.08.58-1 .57-1.08.5-1.08.44-1.15.43-1.14.36-1.15.28-1.22.22-1.15.14-1.22.15-1.23v-2.37l-.08-1.22-.14-1.22v-.36l-.07-.28v-.72l-.07-.29v-1.65l.07-.36v-.65l.07-.35v-.29l.07-.36v-.36l.07-.29.08-.36.07-.28.07-.36.07-.29.07-.36.07-.29.15-.36.07-.28.07-.36.15-.29.14-.29.07-.36.14-.28.15-.29.14-.36.15-.29.14-.28.14-.29.15-.29.14-.28.14-.29.22-.29.14-.29.22-.28.14-.29.22-.29.14-.29.22-.21.21-.29.22-.29.36-.43.36-.5.35-.43.44-.5.35-.51.36-.43.72-1 .29-.5.36-.44.72-1 .35-.5.29-.51.36-.5.29-.5.36-.5.28-.51.36-.5.29-.5.36-.58.29-.5.28-.5.29-.5.36-.58.58-1 .28-.51.29-.57.29-.5.28-.58.22-.5.29-.58.28-.5.29-.57.22-.51.28-.57.22-.5.29-.58.21-.5.29-.57.22-.58.21-.57.29-.51.21-.57.22-.58.21-.57z" style="fill:#363636;fill-rule:nonzero;stroke:#000;stroke-width:.07px" transform="matrix(-13.8933 0 0 13.8933 7183.5 -805.107)"/><path d="m266.42 217.8.15-.43.21-.5.15-.5.21-.5.22-.44.21-.5.22-.43.21-.43.29-.5.22-.43.28-.43.29-.43.29-.44.36-.35.29-.44.35-.35.29-.44.36-.35.72-.72.43-.36.36-.36.43-.29.36-.36.43-.28 1.29-.87.43-.28.43-.22.51-.21.43-.29.5-.22.43-.14.5-.22.43-.21.51-.15 1-.28.51-.15.5-.07.5-.14.5-.07.51-.08 1-.14h1.22l.15-.07h4.3l.15.07h1.22l1 .14.51.08.5.07.5.14.5.07.51.15 1 .28.51.15.43.21.5.22.43.14.5.22.43.29.51.21.43.22.43.28 1.29.87.43.28.36.36.43.29.36.36.43.36.72.72.36.35.29.44.36.35.28.44.36.35.29.44.29.43.28.43.22.43.29.5.21.43.22.43.21.5.22.44.21.5.15.5.21.5.15.43.21.79.58 1.44.28.72.29.72.36.64.36.72.43.65.43.64.86 1.3.5.64.44.58.57.57.5.58.58.57.5.5.57.58.65.5.57.43.65.5.65.44.64.43.65.36.72.35.64.36.72.36 1.44.58.72.28.79.29.72.22.71.14.79.22.79.14.72.14.79.08 1.58.14h2.3l1.58-.14.72-.08 1.58-.28.72-.15.5-.07.5-.14.5-.07.51-.08.57-.07h.5l.51-.07h2.01l.57.07h.5l.51.07.5.08.5.14.5.07.51.14.5.08.5.14.51.14.43.22.5.14.5.22.43.21.51.22.43.21.5.22.43.29.43.21.86.58.43.28.43.36.36.29.43.36.36.29.36.36.43.35.36.36.29.36.36.43.36.36.28.43.36.43.29.44.29.35.29.51v.07l.21.21v.15l.14.14.08.07v.15l.14.14v.07l.07.07.07.15.08.07v.07l.07.07.07.15.07.07v.07l.07.07.07.15v.07l.08.07.07.07.07.15v.07l.14.14v.14l.22.22v.14l.07.08.07.07v.07l.07.14.08.07v.08l.07.07.07.14v.07l.07.07.07.08.08.14v.07l.07.07.21.43.22.51.21.43.22.5.21.5.15.43.21.51.15.5.14.5.07.51.15.5.07.5.14.5.07.51v.5l.07.5v.5l.08.58v1l-.08.51v.5l-.07.5v.5l-.14.58-.14 1-.15.51-.07.5-.14.43-.15.5-.21.51-.15.5-.21.43-.22.5-.21.51-.22.43-.21.43-.29.5-.22.43-.28.43-.58.86-.28.36-.36.43-.29.43-.72.72-.5.58-.5.57-.51.65-.5.64-.43.58-.43.64-.36.72-.43.65-.36.72-.36.64-.29.72-.28.72-.29.72-.22.79-.28.72-.22.71-.14.79-.15.72-.28 1.58-.08.79-.07.72v3.16l.07.72.08.79.28 1.58.15.72.14.79.22.71.28.72.22.79.29.72.28.72.29.72.36.64.36.72.43.65.36.72.43.64.43.58.5.64.51.65.5.57.5.58.72.72.29.43.36.43.28.36.58.86.28.43.22.43.29.5.21.43.22.43.21.51.22.5.21.43.15.5.21.51.15.5.14.43.07.5.15.51.14 1 .14.58v.5l.07.5v.5l.08.51v1l-.08.58v.5l-.07.5v.5l-.07.51-.14.5-.07.5-.15.5-.07.51-.14.5-.15.5-.21.51-.15.43-.21.5-.22.5-.21.43-.22.51-.21.43-.07.07v.07l-.08.14-.07.07-.07.08v.07l-.07.14-.07.07v.08l-.08.07-.07.14v.07l-.07.07-.07.08v.14l-.22.22v.14l-.14.14v.07l-.07.15-.07.07-.08.07v.07l-.07.15-.07.07v.07l-.07.07-.07.15-.07.07v.07l-.08.07-.07.15-.07.07v.07l-.14.14v.15l-.08.07-.14.14v.15l-.21.21v.07l-.29.51-.29.35-.29.44-.36.43-.28.43-.36.36-.36.43-.29.36-.36.36-.43.35-.36.36-.36.29-.43.36-.36.29-.43.36-.43.28-.86.58-.43.21-.43.29-.5.22-.43.21-.51.22-.43.21-.5.22-.5.14-.43.22-.51.14-.5.14-.5.08-.51.14-.5.07-.5.14-.5.08-.51.07h-.5l-.57.07h-2.01l-.51-.07h-.5l-.57-.07-.51-.08-.5-.07-.5-.14-.5-.07-.72-.15-1.58-.28-.72-.08-1.58-.14h-2.3l-1.58.14-.79.08-.72.14-.79.14-.79.22-.71.14-.72.22-.79.29-.72.28-1.44.58-.72.36-.64.36-.72.35-.65.36-.64.43-.65.44-.65.5-.57.43-.65.5-.57.58-.5.5-.58.57-.5.58-.57.57-.44.58-.5.64-.86 1.3-.43.64-.43.65-.36.72-.36.64-.29.72-.28.72-.58 1.44-.21.79-.15.43-.21.5-.15.5-.21.5-.22.44-.21.5-.22.43-.21.43-.29.5-.22.43-.28.43-.29.43-.29.44-.36.35-.28.44-.36.35-.29.44-.36.35-.72.72-.43.36-.36.36-.43.29-.36.36-.43.28-1.29.87-.43.28-.43.22-.51.21-.43.29-.5.22-.43.14-.5.22-.43.21-.51.15-1 .28-.51.15-.5.07-.5.14-.5.07-.51.08-1 .14h-1.22l-.15.07h-4.3l-.15-.07h-1.22l-1-.14-.51-.08-.5-.07-.5-.14-.5-.07-.51-.15-1-.28-.51-.15-.43-.21-.5-.22-.43-.14-.5-.22-.43-.29-.51-.21-.43-.22-.43-.28-1.29-.87-.43-.28-.36-.36-.43-.29-.36-.36-.43-.36-.72-.72-.36-.35-.29-.44-.35-.35-.29-.44-.36-.35-.29-.44-.29-.43-.28-.43-.22-.43-.29-.5-.21-.43-.22-.43-.21-.5-.22-.44-.21-.5-.15-.5-.21-.5-.15-.43-.21-.79-.58-1.44-.28-.72-.29-.72-.36-.64-.36-.72-.43-.65-.43-.64-.86-1.3-.5-.64-.44-.58-.57-.57-.5-.58-.58-.57-.5-.5-.57-.58-.65-.5-.57-.43-.65-.5-.65-.44-.64-.43-.65-.36-.72-.35-.64-.36-.72-.36-1.44-.58-.72-.28-.79-.29-.72-.22-.71-.14-.79-.22-.79-.14-.72-.14-.79-.08-1.58-.14h-2.3l-1.58.14-.72.08-1.58.28-.72.15-.5.07-.5.14-.5.07-.51.08-.57.07h-.5l-.51.07h-2.01l-.57-.07h-.5l-.51-.07-.5-.08-.5-.14-.5-.07-.51-.14-.5-.08-.5-.14-.51-.14-.43-.22-.5-.14-.5-.22-.43-.21-.5-.22-.44-.21-.5-.22-.43-.29-.43-.21-.86-.58-.43-.28-.43-.36-.36-.29-.43-.36-.36-.29-.36-.36-.43-.35-.36-.36-.29-.36-.36-.43-.36-.36-.28-.43-.36-.43-.29-.44-.29-.35-.29-.51v-.07l-.21-.21v-.15l-.14-.14-.08-.07v-.15l-.14-.14v-.07l-.07-.07-.07-.15-.08-.07v-.07l-.07-.07-.07-.15-.07-.07v-.07l-.07-.07-.07-.15v-.07l-.08-.07-.07-.07-.07-.15v-.07l-.14-.14v-.14l-.22-.22v-.14l-.07-.08-.07-.07v-.07l-.07-.14-.08-.07v-.08l-.07-.07-.07-.14v-.07l-.07-.08-.07-.07-.08-.14v-.07l-.07-.07-.21-.43-.22-.51-.21-.43-.22-.5-.21-.5-.15-.43-.21-.51-.15-.5-.14-.5-.07-.51-.15-.5-.07-.5-.14-.5-.07-.51v-.5l-.07-.5v-.5l-.08-.58v-1l.08-.51v-.5l.07-.5v-.5l.14-.58.14-1 .15-.51.07-.5.14-.43.15-.5.21-.51.15-.5.21-.43.22-.5.21-.51.22-.43.21-.43.29-.5.22-.43.28-.43.58-.86.28-.36.36-.43.29-.43.72-.72.5-.58.5-.57.51-.65.5-.64.43-.58.43-.64.36-.72.43-.65.36-.72.36-.64.29-.72.28-.72.29-.72.22-.79.28-.72.22-.71.14-.79.15-.72.28-1.58.08-.79.07-.72v-3.16l-.07-.72-.08-.79-.28-1.58-.15-.72-.14-.79-.22-.71-.28-.72-.22-.79-.29-.72-.28-.72-.29-.72-.36-.64-.36-.72-.43-.65-.36-.72-.43-.64-.43-.58-.5-.64-.51-.65-.5-.57-.5-.58-.72-.72-.29-.43-.36-.43-.28-.36-.58-.86-.28-.43-.22-.43-.29-.5-.21-.43-.22-.43-.21-.51-.22-.5-.21-.43-.15-.5-.21-.51-.15-.5-.14-.43-.07-.5-.15-.51-.14-1-.14-.58v-.5l-.07-.5v-.5l-.08-.51v-1l.08-.58v-.5l.07-.5v-.5l.07-.51.14-.5.07-.5.15-.5.07-.51.14-.5.15-.5.21-.51.15-.43.21-.5.22-.5.21-.43.22-.51.21-.43.07-.07v-.07l.08-.14.07-.08.07-.07v-.07l.07-.14.07-.07v-.08l.08-.07.07-.14v-.07l.07-.07.07-.08v-.14l.22-.22v-.14l.14-.14v-.07l.07-.15.07-.07.08-.07v-.07l.07-.15.07-.07v-.07l.07-.07.07-.15.07-.07v-.07l.08-.07.07-.15.07-.07v-.07l.14-.14v-.15l.08-.07.14-.14v-.15l.21-.21v-.07l.29-.51.29-.35.29-.44.36-.43.28-.43.36-.36.36-.43.29-.36.36-.36.43-.35.36-.36.36-.29.43-.36.36-.29.43-.36.43-.28.86-.58.43-.21.43-.29.5-.22.44-.21.5-.22.43-.21.5-.22.5-.14.43-.22.51-.14.5-.14.5-.08.51-.14.5-.07.5-.14.5-.08.51-.07h.5l.57-.07h2.01l.51.07h.5l.57.07.51.08.5.07.5.14.5.07.72.15 1.58.28.72.08 1.58.14h2.3l1.58-.14.79-.08.72-.14.79-.14.79-.22.71-.14.72-.22.79-.29.72-.28 1.44-.58.72-.36.64-.36.72-.35.65-.36.64-.43.65-.44.65-.5.57-.43.65-.5.57-.58.5-.5.58-.57.5-.58.57-.57.44-.58.5-.64.86-1.3.43-.64.43-.65.36-.72.36-.64.29-.72.28-.72.58-1.44z" style="fill:#a186bf;fill-rule:nonzero;stroke:#000;stroke-width:.07px" transform="matrix(-13.8933 0 0 13.8933 7183.5 -805.107)"/><path d="m0-37.978-45.357 26.186a1.68 1.68 0 0 0 0 2.91L-29.829.075c.256.148.545.225.84.225h.435c.295 0 .584-.078.84-.225L1.451-16.767c.253-.146.463-.356.611-.608l.228-.391c.15-.256.229-.549.229-.846v-17.912A1.68 1.68 0 0 0 0-37.978" style="fill:#353535" transform="translate(5844.821 5424.672)scale(13.11882)"/><path d="M0-45.325c.52.3.84.854.84 1.454v.001c0 .6-.32 1.155-.84 1.455l-27.936 16.132c-.519.3-.839.855-.839 1.455V7.428c0 1.293-1.399 2.1-2.519 1.454L-46.806-.073a1.7 1.7 0 0 1-.621-.625l-.219-.385a1.7 1.7 0 0 1-.219-.83s-.047-27.862 0-33.636c.003-.35.109-.707.28-1.013.177-.315.445-.677.779-.883 1.932-1.187 10.812-6.241 10.812-6.241l18.351-10.596c.255-.148.545-.225.84-.225h.446c.295 0 .584.077.839.225z" style="fill:#353535" transform="translate(6116.985 5954.198)scale(13.11882)"/><path d="M0-28.236a1.7 1.7 0 0 0-.619-.621l-12.958-7.475v-.006s-13.74-8.056-16.759-9.667a1.52 1.52 0 0 0-1.353 0c-3.019 1.611-16.763 9.667-16.763 9.667v.015l-12.781 7.381a1.7 1.7 0 0 0-.619.622l-.22.386a1.7 1.7 0 0 0-.222.833v17.919a1.68 1.68 0 0 0 2.52 1.455l27.92-16.119c.52-.3 1.16-.3 1.68 0l10.666 6.158c.519.3.84.854.84 1.454v32.246c0 .601.321 1.156.842 1.456l.003.002a1.68 1.68 0 0 0 1.677-.001L-.619 8.513c.258-.149.471-.364.619-.622l.22-.386a1.7 1.7 0 0 0 .222-.833v-33.689c0-.293-.077-.58-.222-.834z" style="fill:#353535" transform="translate(5442.16 5842.657)scale(13.11882)"/><circle cx="3626.28" cy="3185.43" r="248.975" style="fill:#b6b6b6" transform="translate(-1051.27 -1063.33)"/><circle cx="3626.28" cy="3185.43" r="248.975" style="fill:#b6b6b6" transform="translate(184.025 -1063.33)"/><circle cx="3626.28" cy="3185.43" r="248.975" style="fill:#b6b6b6" transform="translate(-1051.27 1077.87)"/><circle cx="3626.28" cy="3185.43" r="248.975" style="fill:#b6b6b6" transform="translate(184.025 1077.87)"/><circle cx="3626.28" cy="3185.43" r="248.975" style="fill:#b6b6b6" transform="translate(802.525 7.268)"/><circle cx="3626.28" cy="3185.43" r="248.975" style="fill:#b6b6b6" transform="translate(-1669.77 7.268)"/></svg>