<svg xmlns="http://www.w3.org/2000/svg" xml:space="preserve" style="fill-rule:evenodd;clip-rule:evenodd;stroke-linejoin:round;stroke-miterlimit:2" viewBox="0 0 1583 473"><path d="M.524 0h.048L.295-.687.014 0h.048l.089-.219h.284zM.167-.259l.127-.316.125.316z" style="fill:#ca452a;fill-rule:nonzero" transform="matrix(52.7905 0 0 53.25466 1160.177 268.783)"/><path d="M.09 0h.183C.394 0 .48-.07.48-.187.48-.273.429-.34.342-.354A.16.16 0 0 0 .42-.5c0-.1-.068-.167-.184-.167H.09zm.044-.627h.085c.035 0 .078.002.111.028a.13.13 0 0 1 .045.104q-.002.069-.044.102C.302-.369.274-.365.24-.365H.134zm0 .302h.104c.074 0 .107.011.125.019q.073.034.071.124a.13.13 0 0 1-.043.102c-.045.04-.1.04-.145.04H.134z" style="fill:#ca452a;fill-rule:nonzero" transform="matrix(52.7905 0 0 53.25466 1191.11 268.783)"/><path d="M.42 0 .202-.315a.3.3 0 0 0 .082-.013C.367-.356.396-.424.396-.49a.17.17 0 0 0-.069-.143.23.23 0 0 0-.141-.034H.09V0h.044v-.315h.02L.37 0zM.134-.627h.055c.026 0 .074.004.102.02.026.014.059.049.059.116 0 .086-.057.136-.152.136H.134z" style="fill:#ca452a;fill-rule:nonzero" transform="matrix(52.7905 0 0 53.25466 1219.301 268.783)"/><path d="M.41-.667H.09V0h.32v-.04H.134v-.305h.27v-.04h-.27v-.242H.41z" style="fill:#ca452a;fill-rule:nonzero" transform="matrix(52.7905 0 0 53.25466 1244.007 268.783)"/><path d="M.624-.589a.343.343 0 1 0-.222.6.34.34 0 0 0 .222-.083V-.13A.299.299 0 0 1 .1-.33c0-.169.128-.306.299-.306.086 0 .168.038.225.105z" style="fill:#ca452a;fill-rule:nonzero" transform="matrix(52.7905 0 0 53.25466 1268.502 268.783)"/><path d="M.134-.667H.09V0h.044v-.344h.404V0h.044v-.667H.538v.283H.134z" style="fill:#ca452a;fill-rule:nonzero" transform="matrix(52.7905 0 0 53.25466 1304.294 268.783)"/><path d="M.134 0v-.569l.56.586v-.684H.65v.579L.09-.674V0z" style="fill:#ca452a;fill-rule:nonzero" transform="matrix(52.7905 0 0 53.25466 1339.769 268.783)"/><path d="M.09-.667v.417c0 .073.004.121.038.171a.22.22 0 0 0 .189.09.22.22 0 0 0 .189-.09C.54-.129.544-.177.544-.25v-.417H.5v.417c0 .063-.003.104-.028.144-.039.063-.112.077-.155.077S.201-.043.162-.106C.137-.146.134-.187.134-.25v-.417z" style="fill:#ca452a;fill-rule:nonzero" transform="matrix(52.7905 0 0 53.25466 1381.157 268.783)"/><path d="M.134 0v-.569l.56.586v-.684H.65v.579L.09-.674V0z" style="fill:#ca452a;fill-rule:nonzero" transform="matrix(52.7905 0 0 53.25466 1414.626 268.783)"/><path d="M.438-.28h.236a.3.3 0 0 1-.044.138.28.28 0 0 1-.232.113A.294.294 0 0 1 .1-.33a.3.3 0 0 1 .556-.162L.691-.52a.4.4 0 0 0-.08-.084.32.32 0 0 0-.209-.072.34.34 0 0 0-.348.344c0 .199.149.343.345.343A.31.31 0 0 0 .65-.101.36.36 0 0 0 .718-.32h-.28z" style="fill:#ca452a;fill-rule:nonzero" transform="matrix(52.7905 0 0 53.25466 1456.014 268.783)"/><path d="m.014-.667.244.694.238-.694H.448l-.19.568-.196-.568z" style="fill:#ca452a;fill-rule:nonzero" transform="matrix(129.50582 0 0 130.6445 442.3 299.72)"/><path d="M.41-.667H.09V0h.32v-.04H.134v-.305h.27v-.04h-.27v-.242H.41z" style="fill:#ca452a;fill-rule:nonzero" transform="matrix(129.50582 0 0 130.6445 508.349 299.72)"/><path d="M.42 0 .202-.315a.3.3 0 0 0 .082-.013C.367-.356.396-.424.396-.49a.17.17 0 0 0-.069-.143.23.23 0 0 0-.141-.034H.09V0h.044v-.315h.02L.37 0zM.134-.627h.055c.026 0 .074.004.102.02.026.014.059.049.059.116 0 .086-.057.136-.152.136H.134z" style="fill:#ca452a;fill-rule:nonzero" transform="matrix(129.50582 0 0 130.6445 568.44 299.72)"/><path d="M.09-.667V0h.23v-.04H.134v-.627z" style="fill:#ca452a;fill-rule:nonzero" transform="matrix(129.50582 0 0 130.6445 629.048 299.72)"/><path d="M.41-.667H.09V0h.32v-.04H.134v-.305h.27v-.04h-.27v-.242H.41z" style="fill:#ca452a;fill-rule:nonzero" transform="matrix(129.50582 0 0 130.6445 672.303 299.72)"/><path d="M.404-.627v-.04h-.39v.04h.173V0h.044v-.627z" style="fill:#ca452a;fill-rule:nonzero" transform="matrix(129.50582 0 0 130.6445 732.394 299.72)"/><path d="M.517-.667H.076v.04h.367L.037 0h.469v-.04H.111z" style="fill:#ca452a;fill-rule:nonzero" transform="matrix(129.50582 0 0 130.6445 786.527 299.72)"/><path d="M.09-.667v.417c0 .073.004.121.038.171a.22.22 0 0 0 .189.09.22.22 0 0 0 .189-.09C.54-.129.544-.177.544-.25v-.417H.5v.417c0 .063-.003.104-.028.144-.039.063-.112.077-.155.077S.201-.043.162-.106C.137-.146.134-.187.134-.25v-.417z" style="fill:#ca452a;fill-rule:nonzero" transform="matrix(129.50582 0 0 130.6445 858.273 299.72)"/><path d="M.134 0v-.569l.56.586v-.684H.65v.579L.09-.674V0z" style="fill:#ca452a;fill-rule:nonzero" transform="matrix(129.50582 0 0 130.6445 940.38 299.72)"/><path d="M.438-.28h.236a.3.3 0 0 1-.044.138.28.28 0 0 1-.232.113A.294.294 0 0 1 .1-.33a.3.3 0 0 1 .556-.162L.691-.52a.4.4 0 0 0-.08-.084.32.32 0 0 0-.209-.072.34.34 0 0 0-.348.344c0 .199.149.343.345.343A.31.31 0 0 0 .65-.101.36.36 0 0 0 .718-.32h-.28z" style="fill:#ca452a;fill-rule:nonzero" transform="matrix(129.50582 0 0 130.6445 1041.913 299.72)"/><path d="M.426-.581a.18.18 0 0 0-.162-.095.162.162 0 0 0-.15.242c.023.038.056.056.122.088q.084.041.113.058c.051.031.065.069.065.105 0 .088-.071.154-.161.154a.16.16 0 0 1-.125-.057.2.2 0 0 1-.036-.064l-.038.018a.2.2 0 0 0 .043.073.19.19 0 0 0 .155.07C.366.011.46-.072.46-.184a.15.15 0 0 0-.071-.129C.355-.337.322-.351.256-.383.189-.416.139-.44.139-.512c0-.067.045-.124.124-.124.018 0 .09.002.131.082z" style="fill:#ca452a;fill-rule:nonzero" transform="matrix(120.93367 0 0 121.99697 336.982 196.767)"/><path d="M.09-.667h.044V0H.09z" style="fill:#ca452a;fill-rule:nonzero" transform="matrix(120.93367 0 0 121.99697 399.141 196.767)"/><path d="M.624-.589a.343.343 0 1 0-.222.6.34.34 0 0 0 .222-.083V-.13A.299.299 0 0 1 .1-.33c0-.169.128-.306.299-.306.086 0 .168.038.225.105z" style="fill:#ca452a;fill-rule:nonzero" transform="matrix(120.93367 0 0 121.99697 426.23 196.767)"/><path d="M.134-.667H.09V0h.044v-.344h.404V0h.044v-.667H.538v.283H.134z" style="fill:#ca452a;fill-rule:nonzero" transform="matrix(120.93367 0 0 121.99697 508.224 196.767)"/><path d="M.41-.667H.09V0h.32v-.04H.134v-.305h.27v-.04h-.27v-.242H.41z" style="fill:#ca452a;fill-rule:nonzero" transform="matrix(120.93367 0 0 121.99697 589.491 196.767)"/><path d="M.42 0 .202-.315a.3.3 0 0 0 .082-.013C.367-.356.396-.424.396-.49a.17.17 0 0 0-.069-.143.23.23 0 0 0-.141-.034H.09V0h.044v-.315h.02L.37 0zM.134-.627h.055c.026 0 .074.004.102.02.026.014.059.049.059.116 0 .086-.057.136-.152.136H.134z" style="fill:#ca452a;fill-rule:nonzero" transform="matrix(120.93367 0 0 121.99697 645.604 196.767)"/><path d="M.134-.667H.09V0h.044v-.344h.404V0h.044v-.667H.538v.283H.134z" style="fill:#ca452a;fill-rule:nonzero" transform="matrix(120.93367 0 0 121.99697 702.201 196.767)"/><path d="M.41-.667H.09V0h.32v-.04H.134v-.305h.27v-.04h-.27v-.242H.41z" style="fill:#ca452a;fill-rule:nonzero" transform="matrix(120.93367 0 0 121.99697 783.469 196.767)"/><path d="M.09-.667h.044V0H.09z" style="fill:#ca452a;fill-rule:nonzero" transform="matrix(120.93367 0 0 121.99697 839.582 196.767)"/><path d="M.404-.627v-.04h-.39v.04h.173V0h.044v-.627z" style="fill:#ca452a;fill-rule:nonzero" transform="matrix(120.93367 0 0 121.99697 866.671 196.767)"/><path d="M.438-.28h.236a.3.3 0 0 1-.044.138.28.28 0 0 1-.232.113A.294.294 0 0 1 .1-.33a.3.3 0 0 1 .556-.162L.691-.52a.4.4 0 0 0-.08-.084.32.32 0 0 0-.209-.072.34.34 0 0 0-.348.344c0 .199.149.343.345.343A.31.31 0 0 0 .65-.101.36.36 0 0 0 .718-.32h-.28z" style="fill:#ca452a;fill-rule:nonzero" transform="matrix(88.07333 0 0 88.84771 1138.223 214.82)"/><path d="M.42 0 .202-.315a.3.3 0 0 0 .082-.013C.367-.356.396-.424.396-.49a.17.17 0 0 0-.069-.143.23.23 0 0 0-.141-.034H.09V0h.044v-.315h.02L.37 0zM.134-.627h.055c.026 0 .074.004.102.02.026.014.059.049.059.116 0 .086-.057.136-.152.136H.134z" style="fill:#ca452a;fill-rule:nonzero" transform="matrix(88.07333 0 0 88.84771 1206.216 214.82)"/><path d="M.524 0h.048L.295-.687.014 0h.048l.089-.219h.284zM.167-.259l.127-.316.125.316z" style="fill:#ca452a;fill-rule:nonzero" transform="matrix(88.07333 0 0 88.84771 1244.704 214.82)"/><path d="M.09-.667v.417c0 .073.004.121.038.171a.22.22 0 0 0 .189.09.22.22 0 0 0 .189-.09C.54-.129.544-.177.544-.25v-.417H.5v.417c0 .063-.003.104-.028.144-.039.063-.112.077-.155.077S.201-.043.162-.106C.137-.146.134-.187.134-.25v-.417z" style="fill:#ca452a;fill-rule:nonzero" transform="matrix(88.07333 0 0 88.84771 1294.553 214.82)"/><path d="M.517-.667H.076v.04h.367L.037 0h.469v-.04H.111z" style="fill:#ca452a;fill-rule:nonzero" transform="matrix(88.07333 0 0 88.84771 1346.693 214.82)"/><path d="M.4-.676a.34.34 0 0 0-.346.344c0 .192.15.343.346.343a.34.34 0 0 0 .346-.343A.34.34 0 0 0 .4-.676m0 .647a.296.296 0 0 1-.3-.303c0-.171.128-.304.3-.304s.3.133.3.304-.128.303-.3.303" style="fill:#ca452a;fill-rule:nonzero" transform="matrix(88.07333 0 0 88.84771 1391.786 214.82)"/><path d="M.134 0v-.569l.56.586v-.684H.65v.579L.09-.674V0z" style="fill:#ca452a;fill-rule:nonzero" transform="matrix(88.07333 0 0 88.84771 1462.245 214.82)"/><path d="M.41-.667H.09V0h.32v-.04H.134v-.305h.27v-.04h-.27v-.242H.41z" style="fill:#ca452a;fill-rule:nonzero" transform="matrix(88.07333 0 0 88.84771 1531.294 214.82)"/><path d="M.517-.667H.076v.04h.367L.037 0h.469v-.04H.111z" style="fill:#ca452a;fill-rule:nonzero" transform="matrix(61.4844 0 0 62.025 928.586 197.421)"/><path d="M.09-.667v.417c0 .073.004.121.038.171a.22.22 0 0 0 .189.09.22.22 0 0 0 .189-.09C.54-.129.544-.177.544-.25v-.417H.5v.417c0 .063-.003.104-.028.144-.039.063-.112.077-.155.077S.201-.043.162-.106C.137-.146.134-.187.134-.25v-.417z" style="fill:#ca452a;fill-rule:nonzero" transform="matrix(61.4844 0 0 62.025 962.649 197.421)"/><path d="M.404-.627v-.04h-.39v.04h.173V0h.044v-.627z" style="fill:#ca452a;fill-rule:nonzero" transform="matrix(61.4844 0 0 62.025 1001.63 197.421)"/><path d="M.42 0 .202-.315a.3.3 0 0 0 .082-.013C.367-.356.396-.424.396-.49a.17.17 0 0 0-.069-.143.23.23 0 0 0-.141-.034H.09V0h.044v-.315h.02L.37 0zM.134-.627h.055c.026 0 .074.004.102.02.026.014.059.049.059.116 0 .086-.057.136-.152.136H.134z" style="fill:#ca452a;fill-rule:nonzero" transform="matrix(61.4844 0 0 62.025 1027.33 197.421)"/><path d="M.09-.667h.044V0H.09z" style="fill:#ca452a;fill-rule:nonzero" transform="matrix(61.4844 0 0 62.025 1056.105 197.421)"/><path d="M.404-.627v-.04h-.39v.04h.173V0h.044v-.627z" style="fill:#ca452a;fill-rule:nonzero" transform="matrix(61.4844 0 0 62.025 1069.878 197.421)"/><path d="M.404-.627v-.04h-.39v.04h.173V0h.044v-.627z" style="fill:#ca452a;fill-rule:nonzero" transform="matrix(61.4844 0 0 62.025 1097.484 197.421)"/><path d="M.438-.28h.236a.3.3 0 0 1-.044.138.28.28 0 0 1-.232.113A.294.294 0 0 1 .1-.33a.3.3 0 0 1 .556-.162L.691-.52a.4.4 0 0 0-.08-.084.32.32 0 0 0-.209-.072.34.34 0 0 0-.348.344c0 .199.149.343.345.343A.31.31 0 0 0 .65-.101.36.36 0 0 0 .718-.32h-.28z" style="fill:#ca452a;fill-rule:nonzero" transform="matrix(113.08272 0 0 114.077 163.431 95.182)"/><path d="M.41-.667H.09V0h.32v-.04H.134v-.305h.27v-.04h-.27v-.242H.41z" style="fill:#ca452a;fill-rule:nonzero" transform="matrix(113.08272 0 0 114.077 250.731 95.182)"/><path d="m.014-.667.225.692.248-.606.226.606.257-.692H.922l-.209.566-.226-.602-.241.602-.184-.566z" style="fill:#ca452a;fill-rule:nonzero" transform="matrix(113.08272 0 0 114.077 303.201 95.182)"/><path d="M.09-.667h.044V0H.09z" style="fill:#ca452a;fill-rule:nonzero" transform="matrix(113.08272 0 0 114.077 414.475 95.182)"/><path d="M.426-.581a.18.18 0 0 0-.162-.095.162.162 0 0 0-.15.242c.023.038.056.056.122.088q.084.041.113.058c.051.031.065.069.065.105 0 .088-.071.154-.161.154a.16.16 0 0 1-.125-.057.2.2 0 0 1-.036-.064l-.038.018a.2.2 0 0 0 .043.073.19.19 0 0 0 .155.07C.366.011.46-.072.46-.184a.15.15 0 0 0-.071-.129C.355-.337.322-.351.256-.383.189-.416.139-.44.139-.512c0-.067.045-.124.124-.124.018 0 .09.002.131.082z" style="fill:#ca452a;fill-rule:nonzero" transform="matrix(113.08272 0 0 114.077 439.805 95.182)"/><path d="M.426-.581a.18.18 0 0 0-.162-.095.162.162 0 0 0-.15.242c.023.038.056.056.122.088q.084.041.113.058c.051.031.065.069.065.105 0 .088-.071.154-.161.154a.16.16 0 0 1-.125-.057.2.2 0 0 1-.036-.064l-.038.018a.2.2 0 0 0 .043.073.19.19 0 0 0 .155.07C.366.011.46-.072.46-.184a.15.15 0 0 0-.071-.129C.355-.337.322-.351.256-.383.189-.416.139-.44.139-.512c0-.067.045-.124.124-.124.018 0 .09.002.131.082z" style="fill:#ca452a;fill-rule:nonzero" transform="matrix(113.08272 0 0 114.077 494.424 95.182)"/><path d="M.41-.667H.09V0h.32v-.04H.134v-.305h.27v-.04h-.27v-.242H.41z" style="fill:#ca452a;fill-rule:nonzero" transform="matrix(113.08272 0 0 114.077 552.549 95.182)"/><path d="M.134 0v-.569l.56.586v-.684H.65v.579L.09-.674V0z" style="fill:#ca452a;fill-rule:nonzero" transform="matrix(113.08272 0 0 114.077 605.02 95.182)"/><path d="M.22-.317c.115 0 .194-.065.194-.176 0-.114-.086-.174-.195-.174H.09V0h.044v-.317zm-.086-.31h.081c.097 0 .153.052.153.135s-.059.135-.146.135H.134z" style="fill:#ca452a;fill-rule:nonzero" transform="matrix(86.3782 0 0 87.13768 436.337 388.065)"/><path d="M.42 0 .202-.315a.3.3 0 0 0 .082-.013C.367-.356.396-.424.396-.49a.17.17 0 0 0-.069-.143.23.23 0 0 0-.141-.034H.09V0h.044v-.315h.02L.37 0zM.134-.627h.055c.026 0 .074.004.102.02.026.014.059.049.059.116 0 .086-.057.136-.152.136H.134z" style="fill:#ca452a;fill-rule:nonzero" transform="matrix(86.3782 0 0 87.13768 474.861 388.065)"/><path d="M.4-.676a.34.34 0 0 0-.346.344c0 .192.15.343.346.343a.34.34 0 0 0 .346-.343A.34.34 0 0 0 .4-.676m0 .647a.296.296 0 0 1-.3-.303c0-.171.128-.304.3-.304s.3.133.3.304-.128.303-.3.303" style="fill:#ca452a;fill-rule:nonzero" transform="matrix(86.3782 0 0 87.13768 514.336 388.065)"/><path d="M.404-.627v-.04h-.39v.04h.173V0h.044v-.627z" style="fill:#ca452a;fill-rule:nonzero" transform="matrix(86.3782 0 0 87.13768 580.761 388.065)"/><path d="M.4-.676a.34.34 0 0 0-.346.344c0 .192.15.343.346.343a.34.34 0 0 0 .346-.343A.34.34 0 0 0 .4-.676m0 .647a.296.296 0 0 1-.3-.303c0-.171.128-.304.3-.304s.3.133.3.304-.128.303-.3.303" style="fill:#ca452a;fill-rule:nonzero" transform="matrix(86.3782 0 0 87.13768 614.19 388.065)"/><path d="M.134-.667H.09V0h.044v-.301l.018-.017L.466 0h.06L.184-.348l.323-.319H.449l-.315.314z" style="fill:#ca452a;fill-rule:nonzero" transform="matrix(86.3782 0 0 87.13768 683.292 388.065)"/><path d="M.4-.676a.34.34 0 0 0-.346.344c0 .192.15.343.346.343a.34.34 0 0 0 .346-.343A.34.34 0 0 0 .4-.676m0 .647a.296.296 0 0 1-.3-.303c0-.171.128-.304.3-.304s.3.133.3.304-.128.303-.3.303" style="fill:#ca452a;fill-rule:nonzero" transform="matrix(86.3782 0 0 87.13768 727.258 388.065)"/><path d="M.09-.667V0h.23v-.04H.134v-.627z" style="fill:#ca452a;fill-rule:nonzero" transform="matrix(86.3782 0 0 87.13768 796.361 388.065)"/><path d="M.09-.667V0h.23v-.04H.134v-.627z" style="fill:#ca452a;fill-rule:nonzero" transform="matrix(86.3782 0 0 87.13768 825.211 388.065)"/><path d="M.09-.667h.044V0H.09z" style="fill:#ca452a;fill-rule:nonzero" transform="matrix(86.3782 0 0 87.13768 854.062 388.065)"/><path d="M.41-.667H.09V0h.32v-.04H.134v-.305h.27v-.04h-.27v-.242H.41z" style="fill:#ca452a;fill-rule:nonzero" transform="matrix(86.3782 0 0 87.13768 873.41 388.065)"/><path d="M.42 0 .202-.315a.3.3 0 0 0 .082-.013C.367-.356.396-.424.396-.49a.17.17 0 0 0-.069-.143.23.23 0 0 0-.141-.034H.09V0h.044v-.315h.02L.37 0zM.134-.627h.055c.026 0 .074.004.102.02.026.014.059.049.059.116 0 .086-.057.136-.152.136H.134z" style="fill:#ca452a;fill-rule:nonzero" transform="matrix(86.3782 0 0 87.13768 913.49 388.065)"/><path d="M.09-.667v.417c0 .073.004.121.038.171a.22.22 0 0 0 .189.09.22.22 0 0 0 .189-.09C.54-.129.544-.177.544-.25v-.417H.5v.417c0 .063-.003.104-.028.144-.039.063-.112.077-.155.077S.201-.043.162-.106C.137-.146.134-.187.134-.25v-.417z" style="fill:#ca452a;fill-rule:nonzero" transform="matrix(86.3782 0 0 87.13768 953.915 388.065)"/><path d="M.134 0v-.569l.56.586v-.684H.65v.579L.09-.674V0z" style="fill:#ca452a;fill-rule:nonzero" transform="matrix(86.3782 0 0 87.13768 1008.679 388.065)"/><path d="M.438-.28h.236a.3.3 0 0 1-.044.138.28.28 0 0 1-.232.113A.294.294 0 0 1 .1-.33a.3.3 0 0 1 .556-.162L.691-.52a.4.4 0 0 0-.08-.084.32.32 0 0 0-.209-.072.34.34 0 0 0-.348.344c0 .199.149.343.345.343A.31.31 0 0 0 .65-.101.36.36 0 0 0 .718-.32h-.28z" style="fill:#ca452a;fill-rule:nonzero" transform="matrix(86.3782 0 0 87.13768 1076.4 388.065)"/><path d="M.524 0h.048L.295-.687.014 0h.048l.089-.219h.284zM.167-.259l.127-.316.125.316z" style="fill:#ca452a;fill-rule:nonzero" transform="matrix(105.78698 0 0 106.71711 -1.473 284.724)"/><path d="M.09-.667v.417c0 .073.004.121.038.171a.22.22 0 0 0 .189.09.22.22 0 0 0 .189-.09C.54-.129.544-.177.544-.25v-.417H.5v.417c0 .063-.003.104-.028.144-.039.063-.112.077-.155.077S.201-.043.162-.106C.137-.146.134-.187.134-.25v-.417z" style="fill:#ca452a;fill-rule:nonzero" transform="matrix(105.78698 0 0 106.71711 58.403 284.724)"/><path d="M.36-.667H.09V0h.044v-.345h.22v-.04h-.22v-.242H.36z" style="fill:#ca452a;fill-rule:nonzero" transform="matrix(105.78698 0 0 106.71711 125.472 284.724)"/><path d="M.426-.581a.18.18 0 0 0-.162-.095.162.162 0 0 0-.15.242c.023.038.056.056.122.088q.084.041.113.058c.051.031.065.069.065.105 0 .088-.071.154-.161.154a.16.16 0 0 1-.125-.057.2.2 0 0 1-.036-.064l-.038.018a.2.2 0 0 0 .043.073.19.19 0 0 0 .155.07C.366.011.46-.072.46-.184a.15.15 0 0 0-.071-.129C.355-.337.322-.351.256-.383.189-.416.139-.44.139-.512c0-.067.045-.124.124-.124.018 0 .09.002.131.082z" style="fill:#ca452a;fill-rule:nonzero" transform="matrix(105.78698 0 0 106.71711 162.92 284.724)"/><path d="M.09-.667h.044V0H.09z" style="fill:#ca452a;fill-rule:nonzero" transform="matrix(105.78698 0 0 106.71711 217.295 284.724)"/><path d="M.624-.589a.343.343 0 1 0-.222.6.34.34 0 0 0 .222-.083V-.13A.299.299 0 0 1 .1-.33c0-.169.128-.306.299-.306.086 0 .168.038.225.105z" style="fill:#ca452a;fill-rule:nonzero" transform="matrix(105.78698 0 0 106.71711 240.991 284.724)"/><path d="M.134-.667H.09V0h.044v-.344h.404V0h.044v-.667H.538v.283H.134z" style="fill:#ca452a;fill-rule:nonzero" transform="matrix(105.78698 0 0 106.71711 312.715 284.724)"/><path d="M.404-.627v-.04h-.39v.04h.173V0h.044v-.627z" style="fill:#ca452a;fill-rule:nonzero" transform="matrix(105.78698 0 0 106.71711 383.803 284.724)"/><path d="M.134-.667H.09V0h.044v-.301l.018-.017L.466 0h.06L.184-.348l.323-.319H.449l-.315.314z" style="fill:#ca452a;fill-rule:nonzero" transform="matrix(66.42898 0 0 67.01305 258.135 358.62)"/><path d="M.09-.667v.417c0 .073.004.121.038.171a.22.22 0 0 0 .189.09.22.22 0 0 0 .189-.09C.54-.129.544-.177.544-.25v-.417H.5v.417c0 .063-.003.104-.028.144-.039.063-.112.077-.155.077S.201-.043.162-.106C.137-.146.134-.187.134-.25v-.417z" style="fill:#ca452a;fill-rule:nonzero" transform="matrix(66.42898 0 0 67.01305 291.947 358.62)"/><path d="M.42 0 .202-.315a.3.3 0 0 0 .082-.013C.367-.356.396-.424.396-.49a.17.17 0 0 0-.069-.143.23.23 0 0 0-.141-.034H.09V0h.044v-.315h.02L.37 0zM.134-.627h.055c.026 0 .074.004.102.02.026.014.059.049.059.116 0 .086-.057.136-.152.136H.134z" style="fill:#ca452a;fill-rule:nonzero" transform="matrix(66.42898 0 0 67.01305 334.063 358.62)"/><path d="M.426-.581a.18.18 0 0 0-.162-.095.162.162 0 0 0-.15.242c.023.038.056.056.122.088q.084.041.113.058c.051.031.065.069.065.105 0 .088-.071.154-.161.154a.16.16 0 0 1-.125-.057.2.2 0 0 1-.036-.064l-.038.018a.2.2 0 0 0 .043.073.19.19 0 0 0 .155.07C.366.011.46-.072.46-.184a.15.15 0 0 0-.071-.129C.355-.337.322-.351.256-.383.189-.416.139-.44.139-.512c0-.067.045-.124.124-.124.018 0 .09.002.131.082z" style="fill:#ca452a;fill-rule:nonzero" transform="matrix(66.42898 0 0 67.01305 365.152 358.62)"/><path d="M.41-.667H.09V0h.32v-.04H.134v-.305h.27v-.04h-.27v-.242H.41z" style="fill:#ca452a;fill-rule:nonzero" transform="matrix(66.42898 0 0 67.01305 399.296 358.62)"/><path d="m.127 0 .059-.536.262.56.262-.56L.769 0h.044L.737-.69l-.289.617L.159-.69.083 0z" style="fill:#ca452a;fill-rule:nonzero" transform="matrix(61.4844 0 0 62.025 925.757 135.612)"/><path d="M.524 0h.048L.295-.687.014 0h.048l.089-.219h.284zM.167-.259l.127-.316.125.316z" style="fill:#ca452a;fill-rule:nonzero" transform="matrix(61.4844 0 0 62.025 980.232 135.612)"/><path d="M.426-.581a.18.18 0 0 0-.162-.095.162.162 0 0 0-.15.242c.023.038.056.056.122.088q.084.041.113.058c.051.031.065.069.065.105 0 .088-.071.154-.161.154a.16.16 0 0 1-.125-.057.2.2 0 0 1-.036-.064l-.038.018a.2.2 0 0 0 .043.073.19.19 0 0 0 .155.07C.366.011.46-.072.46-.184a.15.15 0 0 0-.071-.129C.355-.337.322-.351.256-.383.189-.416.139-.44.139-.512c0-.067.045-.124.124-.124.018 0 .09.002.131.082z" style="fill:#ca452a;fill-rule:nonzero" transform="matrix(61.4844 0 0 62.025 1014.356 135.612)"/><path d="M.624-.589a.343.343 0 1 0-.222.6.34.34 0 0 0 .222-.083V-.13A.299.299 0 0 1 .1-.33c0-.169.128-.306.299-.306.086 0 .168.038.225.105z" style="fill:#ca452a;fill-rule:nonzero" transform="matrix(61.4844 0 0 62.025 1045.96 135.612)"/><path d="M.134-.667H.09V0h.044v-.344h.404V0h.044v-.667H.538v.283H.134z" style="fill:#ca452a;fill-rule:nonzero" transform="matrix(61.4844 0 0 62.025 1087.646 135.612)"/><path d="M.09-.667h.044V0H.09z" style="fill:#ca452a;fill-rule:nonzero" transform="matrix(61.4844 0 0 62.025 1128.963 135.612)"/><path d="M.134 0v-.569l.56.586v-.684H.65v.579L.09-.674V0z" style="fill:#ca452a;fill-rule:nonzero" transform="matrix(61.4844 0 0 62.025 1142.736 135.612)"/><path d="M.41-.667H.09V0h.32v-.04H.134v-.305h.27v-.04h-.27v-.242H.41z" style="fill:#ca452a;fill-rule:nonzero" transform="matrix(61.4844 0 0 62.025 1190.94 135.612)"/><path d="M.134 0v-.569l.56.586v-.684H.65v.579L.09-.674V0z" style="fill:#ca452a;fill-rule:nonzero" transform="matrix(61.4844 0 0 62.025 1219.468 135.612)"/><path d="M.36-.667H.09V0h.044v-.345h.22v-.04h-.22v-.242H.36z" style="fill:#ca452a;fill-rule:nonzero" transform="matrix(61.4844 0 0 62.025 1267.672 135.612)"/><path d="M.42 0 .202-.315a.3.3 0 0 0 .082-.013C.367-.356.396-.424.396-.49a.17.17 0 0 0-.069-.143.23.23 0 0 0-.141-.034H.09V0h.044v-.315h.02L.37 0zM.134-.627h.055c.026 0 .074.004.102.02.026.014.059.049.059.116 0 .086-.057.136-.152.136H.134z" style="fill:#ca452a;fill-rule:nonzero" transform="matrix(61.4844 0 0 62.025 1292.635 135.612)"/><path d="M.41-.667H.09V0h.32v-.04H.134v-.305h.27v-.04h-.27v-.242H.41z" style="fill:#ca452a;fill-rule:nonzero" transform="matrix(61.4844 0 0 62.025 1321.41 135.612)"/><path d="M.09-.667h.044V0H.09z" style="fill:#ca452a;fill-rule:nonzero" transform="matrix(61.4844 0 0 62.025 1349.938 135.612)"/><path d="M.438-.28h.236a.3.3 0 0 1-.044.138.28.28 0 0 1-.232.113A.294.294 0 0 1 .1-.33a.3.3 0 0 1 .556-.162L.691-.52a.4.4 0 0 0-.08-.084.32.32 0 0 0-.209-.072.34.34 0 0 0-.348.344c0 .199.149.343.345.343A.31.31 0 0 0 .65-.101.36.36 0 0 0 .718-.32h-.28z" style="fill:#ca452a;fill-rule:nonzero" transform="matrix(61.4844 0 0 62.025 1363.71 135.612)"/><path d="M.524 0h.048L.295-.687.014 0h.048l.089-.219h.284zM.167-.259l.127-.316.125.316z" style="fill:#ca452a;fill-rule:nonzero" transform="matrix(61.4844 0 0 62.025 1409.885 135.612)"/><path d="M.09 0h.183C.394 0 .48-.07.48-.187.48-.273.429-.34.342-.354A.16.16 0 0 0 .42-.5c0-.1-.068-.167-.184-.167H.09zm.044-.627h.085c.035 0 .078.002.111.028a.13.13 0 0 1 .045.104q-.002.069-.044.102C.302-.369.274-.365.24-.365H.134zm0 .302h.104c.074 0 .107.011.125.019q.073.034.071.124a.13.13 0 0 1-.043.102c-.045.04-.1.04-.145.04H.134z" style="fill:#ca452a;fill-rule:nonzero" transform="matrix(61.4844 0 0 62.025 1445.915 135.612)"/><path d="M.41-.667H.09V0h.32v-.04H.134v-.305h.27v-.04h-.27v-.242H.41z" style="fill:#ca452a;fill-rule:nonzero" transform="matrix(61.4844 0 0 62.025 1478.748 135.612)"/><path d="M.09 0h.183C.394 0 .48-.07.48-.187.48-.273.429-.34.342-.354A.16.16 0 0 0 .42-.5c0-.1-.068-.167-.184-.167H.09zm.044-.627h.085c.035 0 .078.002.111.028a.13.13 0 0 1 .045.104q-.002.069-.044.102C.302-.369.274-.365.24-.365H.134zm0 .302h.104c.074 0 .107.011.125.019q.073.034.071.124a.13.13 0 0 1-.043.102c-.045.04-.1.04-.145.04H.134z" style="fill:#ca452a;fill-rule:nonzero" transform="matrix(65.03205 0 0 65.60384 179.478 450.149)"/><path d="M.41-.667H.09V0h.32v-.04H.134v-.305h.27v-.04h-.27v-.242H.41z" style="fill:#ca452a;fill-rule:nonzero" transform="matrix(65.03205 0 0 65.60384 214.205 450.149)"/><path d="M.42 0 .202-.315a.3.3 0 0 0 .082-.013C.367-.356.396-.424.396-.49a.17.17 0 0 0-.069-.143.23.23 0 0 0-.141-.034H.09V0h.044v-.315h.02L.37 0zM.134-.627h.055c.026 0 .074.004.102.02.026.014.059.049.059.116 0 .086-.057.136-.152.136H.134z" style="fill:#ca452a;fill-rule:nonzero" transform="matrix(65.03205 0 0 65.60384 244.38 450.149)"/><path d="M.41-.667H.09V0h.32v-.04H.134v-.305h.27v-.04h-.27v-.242H.41z" style="fill:#ca452a;fill-rule:nonzero" transform="matrix(65.03205 0 0 65.60384 274.815 450.149)"/><path d="M.624-.589a.343.343 0 1 0-.222.6.34.34 0 0 0 .222-.083V-.13A.299.299 0 0 1 .1-.33c0-.169.128-.306.299-.306.086 0 .168.038.225.105z" style="fill:#ca452a;fill-rule:nonzero" transform="matrix(65.03205 0 0 65.60384 304.99 450.149)"/><path d="M.134-.667H.09V0h.044v-.344h.404V0h.044v-.667H.538v.283H.134z" style="fill:#ca452a;fill-rule:nonzero" transform="matrix(65.03205 0 0 65.60384 349.081 450.149)"/><path d="M.404-.627v-.04h-.39v.04h.173V0h.044v-.627z" style="fill:#ca452a;fill-rule:nonzero" transform="matrix(65.03205 0 0 65.60384 392.783 450.149)"/><path d="M.09-.667h.044V0H.09z" style="fill:#ca452a;fill-rule:nonzero" transform="matrix(65.03205 0 0 65.60384 419.966 450.149)"/><path d="M.438-.28h.236a.3.3 0 0 1-.044.138.28.28 0 0 1-.232.113A.294.294 0 0 1 .1-.33a.3.3 0 0 1 .556-.162L.691-.52a.4.4 0 0 0-.08-.084.32.32 0 0 0-.209-.072.34.34 0 0 0-.348.344c0 .199.149.343.345.343A.31.31 0 0 0 .65-.101.36.36 0 0 0 .718-.32h-.28z" style="fill:#ca452a;fill-rule:nonzero" transform="matrix(65.03205 0 0 65.60384 434.533 450.149)"/><path d="M.09-.667v.417c0 .073.004.121.038.171a.22.22 0 0 0 .189.09.22.22 0 0 0 .189-.09C.54-.129.544-.177.544-.25v-.417H.5v.417c0 .063-.003.104-.028.144-.039.063-.112.077-.155.077S.201-.043.162-.106C.137-.146.134-.187.134-.25v-.417z" style="fill:#ca452a;fill-rule:nonzero" transform="matrix(65.03205 0 0 65.60384 484.738 450.149)"/><path d="M.134 0v-.569l.56.586v-.684H.65v.579L.09-.674V0z" style="fill:#ca452a;fill-rule:nonzero" transform="matrix(65.03205 0 0 65.60384 525.968 450.149)"/><path d="M.438-.28h.236a.3.3 0 0 1-.044.138.28.28 0 0 1-.232.113A.294.294 0 0 1 .1-.33a.3.3 0 0 1 .556-.162L.691-.52a.4.4 0 0 0-.08-.084.32.32 0 0 0-.209-.072.34.34 0 0 0-.348.344c0 .199.149.343.345.343A.31.31 0 0 0 .65-.101.36.36 0 0 0 .718-.32h-.28z" style="fill:#ca452a;fill-rule:nonzero" transform="matrix(65.03205 0 0 65.60384 576.954 450.149)"/><path d="M.41-.667H.09V0h.32v-.04H.134v-.305h.27v-.04h-.27v-.242H.41z" style="fill:#ca452a;fill-rule:nonzero" transform="matrix(65.03205 0 0 65.60384 627.158 450.149)"/><path d="M.134 0v-.569l.56.586v-.684H.65v.579L.09-.674V0z" style="fill:#ca452a;fill-rule:nonzero" transform="matrix(65.03205 0 0 65.60384 657.333 450.149)"/><path d="M.517-.667H.076v.04h.367L.037 0h.469v-.04H.111z" style="fill:#ca452a;fill-rule:nonzero" transform="matrix(86.11444 0 0 86.8716 698.042 71.065)"/><path d="M.41-.667H.09V0h.32v-.04H.134v-.305h.27v-.04h-.27v-.242H.41z" style="fill:#ca452a;fill-rule:nonzero" transform="matrix(86.11444 0 0 86.8716 745.749 71.065)"/><path d="M.42 0 .202-.315a.3.3 0 0 0 .082-.013C.367-.356.396-.424.396-.49a.17.17 0 0 0-.069-.143.23.23 0 0 0-.141-.034H.09V0h.044v-.315h.02L.37 0zM.134-.627h.055c.026 0 .074.004.102.02.026.014.059.049.059.116 0 .086-.057.136-.152.136H.134z" style="fill:#ca452a;fill-rule:nonzero" transform="matrix(86.11444 0 0 86.8716 785.706 71.065)"/><path d="M.426-.581a.18.18 0 0 0-.162-.095.162.162 0 0 0-.15.242c.023.038.056.056.122.088q.084.041.113.058c.051.031.065.069.065.105 0 .088-.071.154-.161.154a.16.16 0 0 1-.125-.057.2.2 0 0 1-.036-.064l-.038.018a.2.2 0 0 0 .043.073.19.19 0 0 0 .155.07C.366.011.46-.072.46-.184a.15.15 0 0 0-.071-.129C.355-.337.322-.351.256-.383.189-.416.139-.44.139-.512c0-.067.045-.124.124-.124.018 0 .09.002.131.082z" style="fill:#ca452a;fill-rule:nonzero" transform="matrix(86.11444 0 0 86.8716 826.008 71.065)"/><path d="M.404-.627v-.04h-.39v.04h.173V0h.044v-.627z" style="fill:#ca452a;fill-rule:nonzero" transform="matrix(86.11444 0 0 86.8716 866.74 71.065)"/><path d="M.4-.676a.34.34 0 0 0-.346.344c0 .192.15.343.346.343a.34.34 0 0 0 .346-.343A.34.34 0 0 0 .4-.676m0 .647a.296.296 0 0 1-.3-.303c0-.171.128-.304.3-.304s.3.133.3.304-.128.303-.3.303M.269-.78a.038.038 0 1 0 .076 0 .038.038 0 0 0-.076 0m.186 0a.038.038 0 1 0 .076 0 .038.038 0 0 0-.076 0" style="fill:#ca452a;fill-rule:nonzero" transform="matrix(86.11444 0 0 86.8716 900.066 71.065)"/><path d="M.42 0 .202-.315a.3.3 0 0 0 .082-.013C.367-.356.396-.424.396-.49a.17.17 0 0 0-.069-.143.23.23 0 0 0-.141-.034H.09V0h.044v-.315h.02L.37 0zM.134-.627h.055c.026 0 .074.004.102.02.026.014.059.049.059.116 0 .086-.057.136-.152.136H.134z" style="fill:#ca452a;fill-rule:nonzero" transform="matrix(86.11444 0 0 86.8716 968.958 71.065)"/><path d="M.09-.667v.417c0 .073.004.121.038.171a.22.22 0 0 0 .189.09.22.22 0 0 0 .189-.09C.54-.129.544-.177.544-.25v-.417H.5v.417c0 .063-.003.104-.028.144-.039.063-.112.077-.155.077S.201-.043.162-.106C.137-.146.134-.187.134-.25v-.417z" style="fill:#ca452a;fill-rule:nonzero" transform="matrix(86.11444 0 0 86.8716 1009.26 71.065)"/><path d="M.134 0v-.569l.56.586v-.684H.65v.579L.09-.674V0z" style="fill:#ca452a;fill-rule:nonzero" transform="matrix(86.11444 0 0 86.8716 1063.856 71.065)"/><path d="M.438-.28h.236a.3.3 0 0 1-.044.138.28.28 0 0 1-.232.113A.294.294 0 0 1 .1-.33a.3.3 0 0 1 .556-.162L.691-.52a.4.4 0 0 0-.08-.084.32.32 0 0 0-.209-.072.34.34 0 0 0-.348.344c0 .199.149.343.345.343A.31.31 0 0 0 .65-.101.36.36 0 0 0 .718-.32h-.28z" style="fill:#ca452a;fill-rule:nonzero" transform="matrix(86.11444 0 0 86.8716 1131.37 71.065)"/><path d="m.014-.667.244.694.238-.694H.448l-.19.568-.196-.568z" style="fill:#ca452a;fill-rule:nonzero" transform="matrix(91.07623 0 0 91.87701 720.095 470.383)"/><path d="M.41-.667H.09V0h.32v-.04H.134v-.305h.27v-.04h-.27v-.242H.41z" style="fill:#ca452a;fill-rule:nonzero" transform="matrix(91.07623 0 0 91.87701 766.544 470.383)"/><path d="M.42 0 .202-.315a.3.3 0 0 0 .082-.013C.367-.356.396-.424.396-.49a.17.17 0 0 0-.069-.143.23.23 0 0 0-.141-.034H.09V0h.044v-.315h.02L.37 0zM.134-.627h.055c.026 0 .074.004.102.02.026.014.059.049.059.116 0 .086-.057.136-.152.136H.134z" style="fill:#ca452a;fill-rule:nonzero" transform="matrix(91.07623 0 0 91.87701 808.803 470.383)"/><path d="M.524 0h.048L.295-.687.014 0h.048l.089-.219h.284zM.167-.259l.127-.316.125.316z" style="fill:#ca452a;fill-rule:nonzero" transform="matrix(91.07623 0 0 91.87701 848.603 470.383)"/><path d="M.134 0v-.569l.56.586v-.684H.65v.579L.09-.674V0z" style="fill:#ca452a;fill-rule:nonzero" transform="matrix(91.07623 0 0 91.87701 901.974 470.383)"/><path d="M.404-.627v-.04h-.39v.04h.173V0h.044v-.627z" style="fill:#ca452a;fill-rule:nonzero" transform="matrix(91.07623 0 0 91.87701 973.378 470.383)"/><path d="m.014-.667.225.692.248-.606.226.606.257-.692H.922l-.209.566-.226-.602-.241.602-.184-.566z" style="fill:#ca452a;fill-rule:nonzero" transform="matrix(91.07623 0 0 91.87701 1011.448 470.383)"/><path d="M.4-.676a.34.34 0 0 0-.346.344c0 .192.15.343.346.343a.34.34 0 0 0 .346-.343A.34.34 0 0 0 .4-.676m0 .647a.296.296 0 0 1-.3-.303c0-.171.128-.304.3-.304s.3.133.3.304-.128.303-.3.303" style="fill:#ca452a;fill-rule:nonzero" transform="matrix(91.07623 0 0 91.87701 1101.067 470.383)"/><path d="M.42 0 .202-.315a.3.3 0 0 0 .082-.013C.367-.356.396-.424.396-.49a.17.17 0 0 0-.069-.143.23.23 0 0 0-.141-.034H.09V0h.044v-.315h.02L.37 0zM.134-.627h.055c.026 0 .074.004.102.02.026.014.059.049.059.116 0 .086-.057.136-.152.136H.134z" style="fill:#ca452a;fill-rule:nonzero" transform="matrix(91.07623 0 0 91.87701 1173.928 470.383)"/><path d="M.404-.627v-.04h-.39v.04h.173V0h.044v-.627z" style="fill:#ca452a;fill-rule:nonzero" transform="matrix(91.07623 0 0 91.87701 1213.728 470.383)"/><path d="M.09-.667v.417c0 .073.004.121.038.171a.22.22 0 0 0 .189.09.22.22 0 0 0 .189-.09C.54-.129.544-.177.544-.25v-.417H.5v.417c0 .063-.003.104-.028.144-.039.063-.112.077-.155.077S.201-.043.162-.106C.137-.146.134-.187.134-.25v-.417z" style="fill:#ca452a;fill-rule:nonzero" transform="matrix(91.07623 0 0 91.87701 1251.798 470.383)"/><path d="M.134 0v-.569l.56.586v-.684H.65v.579L.09-.674V0z" style="fill:#ca452a;fill-rule:nonzero" transform="matrix(91.07623 0 0 91.87701 1309.54 470.383)"/><path d="M.438-.28h.236a.3.3 0 0 1-.044.138.28.28 0 0 1-.232.113A.294.294 0 0 1 .1-.33a.3.3 0 0 1 .556-.162L.691-.52a.4.4 0 0 0-.08-.084.32.32 0 0 0-.209-.072.34.34 0 0 0-.348.344c0 .199.149.343.345.343A.31.31 0 0 0 .65-.101.36.36 0 0 0 .718-.32h-.28z" style="fill:#ca452a;fill-rule:nonzero" transform="matrix(91.07623 0 0 91.87701 1380.944 470.383)"/><path d="M.41-.667H.09V0h.32v-.04H.134v-.305h.27v-.04h-.27v-.242H.41z" style="fill:#ca452a;fill-rule:nonzero" transform="matrix(76.5155 0 0 77.18825 1154.03 337.92)"/><path d="M.134 0v-.569l.56.586v-.684H.65v.579L.09-.674V0z" style="fill:#ca452a;fill-rule:nonzero" transform="matrix(76.5155 0 0 77.18825 1189.533 337.92)"/><path d="M.404-.627v-.04h-.39v.04h.173V0h.044v-.627z" style="fill:#ca452a;fill-rule:nonzero" transform="matrix(76.5155 0 0 77.18825 1249.522 337.92)"/><path d="M.09-.667V0h.23v-.04H.134v-.627z" style="fill:#ca452a;fill-rule:nonzero" transform="matrix(76.5155 0 0 77.18825 1281.505 337.92)"/><path d="M.524 0h.048L.295-.687.014 0h.048l.089-.219h.284zM.167-.259l.127-.316.125.316z" style="fill:#ca452a;fill-rule:nonzero" transform="matrix(76.5155 0 0 77.18825 1308.668 337.92)"/><path d="M.426-.581a.18.18 0 0 0-.162-.095.162.162 0 0 0-.15.242c.023.038.056.056.122.088q.084.041.113.058c.051.031.065.069.065.105 0 .088-.071.154-.161.154a.16.16 0 0 1-.125-.057.2.2 0 0 1-.036-.064l-.038.018a.2.2 0 0 0 .043.073.19.19 0 0 0 .155.07C.366.011.46-.072.46-.184a.15.15 0 0 0-.071-.129C.355-.337.322-.351.256-.383.189-.416.139-.44.139-.512c0-.067.045-.124.124-.124.018 0 .09.002.131.082z" style="fill:#ca452a;fill-rule:nonzero" transform="matrix(76.5155 0 0 77.18825 1351.134 337.92)"/><path d="M.404-.627v-.04h-.39v.04h.173V0h.044v-.627z" style="fill:#ca452a;fill-rule:nonzero" transform="matrix(76.5155 0 0 77.18825 1387.326 337.92)"/><path d="M.09-.667v.417c0 .073.004.121.038.171a.22.22 0 0 0 .189.09.22.22 0 0 0 .189-.09C.54-.129.544-.177.544-.25v-.417H.5v.417c0 .063-.003.104-.028.144-.039.063-.112.077-.155.077S.201-.043.162-.106C.137-.146.134-.187.134-.25v-.417z" style="fill:#ca452a;fill-rule:nonzero" transform="matrix(76.5155 0 0 77.18825 1419.31 337.92)"/><path d="M.134 0v-.569l.56.586v-.684H.65v.579L.09-.674V0z" style="fill:#ca452a;fill-rule:nonzero" transform="matrix(76.5155 0 0 77.18825 1467.82 337.92)"/><path d="M.438-.28h.236a.3.3 0 0 1-.044.138.28.28 0 0 1-.232.113A.294.294 0 0 1 .1-.33a.3.3 0 0 1 .556-.162L.691-.52a.4.4 0 0 0-.08-.084.32.32 0 0 0-.209-.072.34.34 0 0 0-.348.344c0 .199.149.343.345.343A.31.31 0 0 0 .65-.101.36.36 0 0 0 .718-.32h-.28z" style="fill:#ca452a;fill-rule:nonzero" transform="matrix(76.5155 0 0 77.18825 1527.808 337.92)"/></svg>