<svg xmlns="http://www.w3.org/2000/svg" xml:space="preserve" style="fill-rule:evenodd;clip-rule:evenodd;stroke-linejoin:round;stroke-miterlimit:2" viewBox="0 0 537 267"><path d="M46.109 113.766c1.074 1.703 1.915 1.674 3.186 1.674-1.05-.803-1.743-1.838-2.075-2.367l-1.965-3.142a4.67 4.67 0 0 0-1.444-2.551c.251-.093.464-.196.587-.291-1.28 0-2.551-.652-3.253-.652-.446 0-.738.271-.738.624.03.398.439.799 1.19.799.172 0 .389-.02.628-.061.409.566.738 1.078.738 1.812 0 1.379-1.645 2.449-3.307 2.449q-.139 0-.274-.012c-.152-.34-.652-.91-.652-1.563 0-1.095.713-1.985.713-3.067 0-.673-.327-1.091-.454-1.264.204-.188.426-.423.479-.582-.119.053-.258.057-.464.057-.796 0-1.448-.205-2.079-.205-.361 0-.455.111-.455.217 0 .037.004.078.016.099a2 2 0 0 0-.414-.115 3 3 0 0 0-.599-.053c-.77 0-1.041.319-1.041.598 0 .235.184.657.393.985.3-.152.657-.255.82-.255.411 0 .771.39.964.85-.275.032-.328.045-.602.045-.751 0-1.259-.267-1.362-.267-.013 0-.033.004-.033.021 0 .106.213.381.631.532.55.206 1.379.288 1.514.312 0 .025-.139.284-.296.333a.16.16 0 0 1-.097.004c-.575-.115-.735-.16-1.465-.439-.024-.008-.037.005-.037.029 0 .286.747.927 1.419 1.168-.562.719-1.259 1.448-1.587 2.56a3 3 0 0 1-.279.012c-1.661 0-3.306-1.07-3.306-2.449 0-.734.328-1.246.739-1.812.237.041.454.061.627.061.75 0 1.161-.401 1.189-.799 0-.353-.287-.624-.738-.624-.702 0-1.969.652-3.252.652.127.095.336.198.586.291a4.67 4.67 0 0 0-1.444 2.551l-1.96 3.142c-.332.529-1.03 1.564-2.08 2.367 1.267 0 2.112.029 3.188-1.674l1.004-1.607q.116.31.275.611l-2.002 3.203c-.332.534-1.025 1.554-2.079 2.367 1.272 0 2.112.028 3.187-1.674l1.722-2.756c.131.135.267.271.411.398L28.05 118.2c-.337.534-1.022 1.555-2.08 2.363 1.271 0 2.112.032 3.186-1.67l2.371-3.793q.234.148.484.283l-2.896 4.635c-.331.529-1.02 1.545-2.079 2.362 1.272 0 2.113.029 3.191-1.669l2.978-4.77c.177.065.357.131.538.188l-3.368 5.389c-.328.525-1.034 1.564-2.075 2.363 1.267 0 2.112.029 3.182-1.67l3.589-5.741q.055.004.111.016c.098.311.164.603.164.89 0 1.805-1.181 3.4-2.605 4.63a1.2 1.2 0 0 0 .394.054c.296 0 .484-.017.619-.041-.331.751-1.037 1.719-1.394 2.215a11 11 0 0 0-1.588-.147c-.463 0-.516.269-.516.512 0 .422.197.759.426.943.086-.213.259-.5 1.116-.5.017 0 .05 0 .086.004-.25.278-1.033.911-1.033 1.423 0 .336.369.845.861.845-.028-.111-.028-.209-.028-.287 0-.41.368-.894.676-1.234-.008.102-.004.09-.004.209 0 .975.09 1.427.71 1.427.303 0 .512-.168.587-.218-.403-.372-.424-.664-.424-1.209 0-.144 0-.284.005-.476 0-.127-.005-.292-.02-.415.221-.028.311-.028.479-.028 0 0 .882-.07 1.096.39.237-.222.586-.53.586-.87 0-.226-.107-.484-.562-.484-.172 0-.714.106-1.165.106.123-.27.665-1.061 1.132-1.636.07.222.181.463.427.661.036-.37.249-1.539.828-2.223.07.463.16.934.16 1.935 0 2.429-.586 4.225-1.825 4.565.16.283.505.534.858.534.45 0 .701-.514.951-.997.131.356.492 1.234.857 1.234s.726-.878.857-1.234c.25.483.5.997.952.997.357 0 .697-.251.857-.534-1.238-.34-1.825-2.136-1.825-4.565 0-1.001.09-1.472.159-1.935.579.684.796 1.853.829 2.223.246-.198.357-.439.427-.661.467.575 1.009 1.366 1.132 1.636-.452 0-.993-.106-1.166-.106-.454 0-.561.258-.561.484 0 .34.348.648.587.87.213-.46 1.095-.39 1.095-.39.172 0 .262 0 .484.028a2.3 2.3 0 0 0-.021.415v.476c0 .545-.02.837-.422 1.209.073.05.282.218.586.218.619 0 .709-.452.709-1.427 0-.119.005-.107-.004-.209.308.34.678.824.678 1.234 0 .078.004.176-.029.287.492 0 .861-.509.861-.845 0-.512-.783-1.145-1.033-1.423q.061-.005.086-.004c.857 0 1.029.287 1.115.5a1.21 1.21 0 0 0 .426-.943c0-.243-.052-.512-.516-.512-.443 0-1.119.065-1.588.147-.356-.496-1.061-1.464-1.394-2.215.135.024.324.041.619.041.148 0 .304-.017.394-.054-1.418-1.23-2.604-2.825-2.604-4.63 0-.287.065-.579.164-.89q.055-.012.11-.016l3.589 5.741c1.075 1.699 1.916 1.67 3.187 1.67-1.046-.799-1.751-1.838-2.079-2.363l-3.368-5.389c.185-.057.362-.123.538-.188l2.982 4.77c1.074 1.698 1.915 1.669 3.187 1.669-1.059-.817-1.743-1.833-2.08-2.362l-2.892-4.635q.247-.135.48-.283l2.371 3.793c1.075 1.702 1.915 1.67 3.187 1.67-1.059-.808-1.743-1.829-2.079-2.363l-2.433-3.892a6 6 0 0 0 .406-.398l1.727 2.756c1.074 1.702 1.916 1.674 3.187 1.674-1.054-.813-1.743-1.833-2.08-2.367l-2.001-3.203q.162-.3.275-.611zm-16.071-3.686c0-1.199.87-2.141 1.177-2.408l.222.049c-.328.398-.902 1.062-.902 1.944 0 1.751 1.87 3.273 3.991 3.273a6 6 0 0 0-.021.472q0 .385.037.721c-2.395-.012-4.504-1.956-4.504-4.051m3.249 14.359-.017.041h.041a7 7 0 0 0 1.219-.083c.115-.011.197-.028.283-.028.172 0 .307.021.307.234 0 .144-.168.369-.331.5-.247-.229-.592-.278-1.096-.278-.234 0-.546.045-.709.065l-.026.004-.028.004.009.078c.019.14.045.312.045.55l-.005.209-.004.267c0 .57.078.893.28 1.14a.6.6 0 0 1-.189.037c-.357 0-.46-.157-.46-1.177 0-.205-.008-.398-.016-.525l-.013-.193-.041.036c-.529.402-1.07 1.121-1.103 1.657-.16-.102-.332-.332-.332-.508 0-.295.443-.734.951-1.242l.291-.296.042-.037-.099-.024a2 2 0 0 0-.488-.079c-.57 0-.927.107-1.148.349-.082-.115-.147-.386-.147-.541q0-.153.06-.213c.05-.05.127-.05.198-.05h.011c.632 0 1.387.115 1.678.16l.021.004.008-.012c.053-.07 1.255-1.669 1.567-2.518a.6.6 0 0 1 .259-.05c.237 0 .303.16.368.407-.751.914-1.218 1.624-1.386 2.112m6.481-2.519c.127 0 .188.021.262.05.312.849 1.513 2.448 1.563 2.518l.012.012.016-.004c.296-.045 1.047-.16 1.678-.16h.017c.065 0 .142 0 .192.05q.062.06.062.213c0 .155-.066.426-.148.541-.218-.242-.579-.349-1.148-.349-.173 0-.378.049-.488.079l-.045.011-.05.013.328.333c.513.508.952.947.952 1.242 0 .176-.172.406-.328.508-.037-.536-.579-1.255-1.108-1.657l-.045-.036-.008.193c-.004.127-.016.32-.016.525 0 1.02-.108 1.177-.46 1.177a.6.6 0 0 1-.188-.037c.2-.247.278-.57.278-1.14l-.003-.267-.004-.209c0-.238.024-.41.045-.55l.007-.078-.052-.008c-.169-.02-.476-.065-.71-.065-.505 0-.85.049-1.095.278-.164-.131-.333-.356-.333-.5 0-.213.131-.234.307-.234.087 0 .17.017.284.028.217.034.546.083 1.218.083h.041l-.013-.041c-.172-.488-.639-1.198-1.39-2.112.066-.247.131-.407.37-.407m-2.782-13.961a2.2 2.2 0 0 0-.439-.874c-.183-.217-.487-.476-.902-.476-.189 0-.5.086-.701.172-.073-.135-.222-.463-.222-.611 0-.151.259-.307.751-.307 1.083 0 1.731.488 1.731 1.308 0 .292-.115.554-.218.788m.484-1.07a1.4 1.4 0 0 0-.262-.62c.008-.213.094-.419.439-.25-.184.188-.045.525-.045.525s.382-.176.299-.427c.563.135.16.886-.431.772m2.109 7.242q.044-.351.045-.721c0-.135 0-.296-.017-.472 2.097-.033 3.93-1.538 3.93-3.273 0-.882-.574-1.546-.899-1.944l.218-.049c.307.267 1.177 1.209 1.177 2.408 0 2.079-2.079 4.011-4.454 4.051m16.094-7.657h3.675v21h-3.675z" style="fill:#231f20" transform="translate(-103.233 -439.266)scale(4.16667)"/><path d="M55.673 127.474h3.675v21h-3.675z" style="fill:#ed1c24" transform="translate(-103.233 -439.266)scale(4.16667)"/><path d="M55.673 148.474h3.675v21h-3.675z" style="fill:#f4cf00" transform="translate(-103.233 -439.266)scale(4.16667)"/><path d="M148.484 109.57c.631 0 .906.415.906 1.399v3.892h1.022v-4.056c0-.23-.013-.443-.049-.631.225-.263.602-.604 1.16-.604.677 0 1.046.415 1.046 1.399v3.892h1.017v-4.056c0-1.44-.627-2.145-1.837-2.145-.784 0-1.337.467-1.6.808-.279-.541-.783-.808-1.464-.808-.829 0-1.345.557-1.509.832h-.025v-.68h-.935v6.049h1.021v-4.663c.176-.213.566-.628 1.247-.628m-4.787 4.611h.025v.68h.931v-6.049h-1.017v4.626c-.206.25-.607.669-1.222.669-.681 0-1.009-.406-1.009-1.398v-3.897h-1.022v3.97c0 1.637.669 2.231 1.739 2.231.919 0 1.461-.619 1.575-.832m-4.839-5.369h-1.022v6.049h1.022zm-.505-1.46c.406 0 .681-.304.681-.73 0-.419-.275-.718-.681-.718-.414 0-.693.299-.693.718 0 .426.279.73.693.73m-1.399 1.447c-.098-.036-.262-.098-.553-.098-.767 0-1.095.451-1.272.931h-.024v-.82h-.936v6.049h1.022v-4.433c.151-.406.492-.82 1.136-.82.274 0 .451.073.504.098zm-4.019 5.496-.377-.717c-.14.135-.554.529-1.272.529-1.021 0-1.575-.669-1.637-2.08h3.085c.037-.291.078-.656.078-1.173 0-1.448-.706-2.194-1.855-2.194-1.258 0-2.304.96-2.304 3.1 0 2.281.955 3.253 2.481 3.253 1.149 0 1.637-.541 1.801-.718m-2.038-4.803c.639 0 .979.493.979 1.326 0 .189-.011.352-.024.438h-2.19c.049-1.131.515-1.764 1.235-1.764m-2.875 5.255-.136-.816a1.24 1.24 0 0 1-.632.176c-.516 0-.717-.255-.717-1.112v-3.35h1.32l.127-.833h-1.447v-1.686h-.907l-.115 1.686-.729.151v.682h.729v3.49c0 1.337.53 1.878 1.563 1.878.542 0 .858-.2.944-.266m-4.107-5.444c-.2-.2-.607-.643-1.537-.643-.985 0-1.751.669-1.751 1.562 0 .833.454 1.325 1.209 1.805l.377.239c.579.364.882.565.882 1.148 0 .39-.327.693-.931.693-.656 0-1.033-.394-1.222-.595l-.492.808c.237.25.73.693 1.702.693 1.235 0 1.928-.742 1.928-1.702 0-.894-.505-1.386-1.325-1.878l-.377-.226c-.542-.329-.792-.578-.792-1.033 0-.353.287-.645.829-.645.57 0 .923.353 1.058.505zm-4.609-.491h-1.022v6.049h1.022zm-.505-1.46c.402 0 .681-.304.681-.73 0-.419-.279-.718-.681-.718-.418 0-.693.299-.693.718 0 .426.275.73.693.73m-4.11 2.177c.706 0 1.046.419 1.046 1.44v3.892h1.021v-3.97c0-1.636-.68-2.231-1.764-2.231-.947 0-1.489.619-1.599.832h-.025v-.68h-.934v6.049h1.02v-4.663c.202-.25.62-.669 1.235-.669m-3.818-.717h-1.017v6.049h1.017zm-.505-1.46c.406 0 .682-.304.682-.73 0-.419-.276-.718-.682-.718-.414 0-.689.299-.689.718 0 .426.275.73.689.73m-7.141 2.218c.628 0 .907.415.907 1.399v3.892h1.021v-4.056c0-.23-.012-.443-.054-.631.23-.263.608-.604 1.162-.604.68 0 1.045.415 1.045 1.399v3.892h1.022v-4.056c0-1.44-.632-2.145-1.842-2.145-.779 0-1.333.467-1.6.808-.274-.541-.779-.808-1.459-.808-.833 0-1.35.557-1.514.832h-.025v-.68h-.931v6.049h1.022v-4.663c.176-.213.566-.628 1.246-.628m-3.63-.267c-.201-.2-.607-.643-1.539-.643-.979 0-1.751.669-1.751 1.562 0 .833.456 1.325 1.211 1.805l.377.239c.582.364.882.565.882 1.148 0 .39-.328.693-.932.693-.656 0-1.033-.394-1.222-.595l-.492.808c.238.25.73.693 1.703.693 1.234 0 1.928-.742 1.928-1.702 0-.894-.505-1.386-1.326-1.878l-.378-.226c-.54-.329-.79-.578-.79-1.033 0-.353.286-.645.828-.645.57 0 .922.353 1.058.505zm-4.286 4.992-.377-.717c-.14.135-.554.529-1.272.529-1.022 0-1.575-.669-1.637-2.08h3.085c.041-.291.078-.656.078-1.173 0-1.448-.706-2.194-1.855-2.194-1.258 0-2.304.96-2.304 3.1 0 2.281.955 3.253 2.481 3.253 1.149 0 1.641-.541 1.801-.718m-2.038-4.803c.639 0 .979.493.979 1.326 0 .189-.011.352-.024.438h-2.19c.049-1.131.516-1.764 1.235-1.764m-4.488 4.725h.025v.644h.935v-9.023l-1.021.115v2.9a2.2 2.2 0 0 0-.858-.152c-1.283 0-2.67.779-2.67 3.224 0 2.206.968 3.088 2.117 3.088.955 0 1.357-.607 1.472-.796m-1.197-.11c-.706 0-1.334-.558-1.334-2.219 0-1.714.743-2.318 1.687-2.318.364 0 .607.099.783.214v3.728c-.14.201-.492.595-1.136.595m-5.706-4.578c.706 0 1.046.419 1.046 1.44v3.892h1.022v-3.97c0-1.636-.682-2.231-1.769-2.231-.942 0-1.484.619-1.599.832h-.025v-.68h-.93v6.049h1.02v-4.663c.202-.25.616-.669 1.235-.669m-4.778 4.652h.029v.68h.93v-6.049h-1.02v4.626c-.202.25-.603.669-1.222.669-.682 0-1.01-.406-1.01-1.398v-3.897H73.79v3.97c0 1.637.669 2.231 1.739 2.231.923 0 1.464-.619 1.575-.832m-5.795-1.752c0 .997-.554 1.526-1.838 1.526h-.681v-3.051h.742c1.136 0 1.777.594 1.777 1.525m-.164-4.006c0 .996-.615 1.611-1.789 1.611h-.566v-2.999h.578c1.222 0 1.777.596 1.777 1.388m1.111-.038c0-1.35-.82-2.219-2.888-2.219h-1.673v8.695h1.776c2.079 0 3.011-.996 3.011-2.358 0-1.156-.743-1.915-1.637-2.092v-.024c.755-.202 1.411-.792 1.411-2.002m56.712 18.962-.14-.816a1.23 1.23 0 0 1-.63.176c-.518 0-.718-.255-.718-1.112v-3.35h1.324l.128-.833h-1.452v-1.686h-.906l-.116 1.686-.729.151v.682h.729v3.49c0 1.337.529 1.878 1.564 1.878.54 0 .857-.2.946-.266m-3.756-5.102.127-.833h-1.362v-1.084c0-.79.267-1.057.742-1.057.267 0 .456.102.558.164l.213-.845a1.76 1.76 0 0 0-.857-.226c-.894 0-1.678.529-1.678 1.85v1.21l-.729.139v.682h.729v5.216h1.022v-5.216zm-5.09 2.571v1.333c-.128.189-.414.595-1.01.595-.499 0-.803-.316-.803-.936 0-.664.517-.942 1.485-.979zm0-.759h-.317c-1.369 0-2.517.468-2.517 1.867 0 .984.693 1.689 1.611 1.689.771 0 1.136-.516 1.272-.82h.028c.013.304.025.492.038.668h.967a11 11 0 0 1-.073-1.259v-2.76c0-1.526-.657-2.182-1.891-2.182-.969 0-1.55.467-1.813.734l.427.681c.229-.205.632-.546 1.234-.546.657 0 1.034.329 1.034 1.349zm-6.075-1.928c.71 0 1.046.419 1.046 1.44v3.892h1.022v-3.97c0-1.599-.669-2.231-1.728-2.231-.968 0-1.422.583-1.545.772h-.03v-3.594l-1.017.115v8.908h1.017v-4.663c.206-.25.62-.669 1.235-.669m-3.326-.262c-.189-.213-.615-.607-1.534-.607-1.198 0-2.535.845-2.535 3.167 0 2.366 1.071 3.186 2.42 3.186.943 0 1.411-.443 1.575-.632l-.414-.704c-.127.138-.443.43-1.059.43-.869 0-1.463-.583-1.463-2.358 0-1.6.68-2.22 1.549-2.22.608 0 .919.341 1.035.456zm-5.151.036c-.202-.2-.603-.643-1.539-.643-.98 0-1.751.669-1.751 1.562 0 .833.456 1.325 1.21 1.805l.378.239c.581.364.882.565.882 1.148 0 .39-.329.693-.932.693-.656 0-1.034-.394-1.222-.595l-.492.808c.241.25.729.693 1.702.693 1.234 0 1.927-.742 1.927-1.702 0-.894-.504-1.386-1.325-1.878l-.377-.226c-.541-.329-.791-.578-.791-1.033 0-.353.286-.645.828-.645.57 0 .923.353 1.063.505zm-4.045 5.444-.14-.816a1.2 1.2 0 0 1-.627.176c-.516 0-.722-.255-.722-1.112v-3.35h1.325l.127-.833h-1.452v-1.686h-.907l-.111 1.686-.734.151v.682h.734v3.49c0 1.337.529 1.878 1.564 1.878.541 0 .853-.2.943-.266m-3.63-5.948c-.099-.036-.263-.098-.554-.098-.767 0-1.095.451-1.271.931h-.025v-.82h-.935v6.049h1.021v-4.433c.152-.406.492-.82 1.137-.82.274 0 .45.073.5.098zm-4.347.013H92.53v6.049h1.018zm-.505-1.46c.406 0 .681-.304.681-.73 0-.419-.275-.718-.681-.718-.414 0-.689.299-.689.718 0 .426.275.73.689.73m-2.568-1.186-1.095 5.242c-.164.796-.328 1.641-.34 2.018h-.029c-.012-.377-.188-1.173-.377-1.969l-1.259-5.291h-1.046l-1.284 5.267c-.189.783-.377 1.616-.39 1.993h-.029c-.012-.377-.164-1.173-.324-1.969l-1.086-5.291h-1.17l2.063 8.695h.985l1.349-5.496c.177-.742.341-1.435.341-1.813h.025c.011.378.176 1.095.353 1.842l1.319 5.467h.985l2.116-8.695zm-10.861 2.633c-.103-.036-.267-.098-.553-.098-.772 0-1.1.451-1.276.931h-.025v-.82h-.93v6.049h1.02v-4.433c.152-.406.488-.82 1.132-.82.279 0 .456.073.505.098zm-5.308 5.382h.03v.68h.93v-6.049h-1.02v4.626c-.202.25-.603.669-1.223.669-.681 0-1.009-.406-1.009-1.398v-3.897h-1.021v3.97c0 1.637.668 2.231 1.738 2.231.923 0 1.465-.619 1.575-.832m-1.545-7.109c0-.389-.267-.639-.607-.639-.341 0-.604.25-.604.639 0 .394.263.645.604.645s.607-.251.607-.645m1.939 0c0-.389-.267-.639-.607-.639s-.602.25-.602.639c0 .394.262.645.602.645s.607-.251.607-.645m-4.675 2.573.127-.833H68.79v-1.084c0-.79.262-1.057.742-1.057.267 0 .456.102.554.164l.218-.845a1.8 1.8 0 0 0-.858-.226c-.894 0-1.677.529-1.677 1.85v1.21l-.731.139v.682h.731v5.216h1.021v-5.216zm50.31 17.25-.377-.717c-.14.135-.554.529-1.272.529-1.021 0-1.575-.669-1.637-2.08h3.085c.037-.291.078-.656.078-1.173 0-1.448-.706-2.194-1.854-2.194-1.259 0-2.305.96-2.305 3.1 0 2.281.955 3.253 2.481 3.253 1.149 0 1.637-.541 1.801-.718m-2.038-4.803c.639 0 .979.493.979 1.326 0 .189-.011.352-.024.438h-2.19c.049-1.131.516-1.764 1.235-1.764m-3.528-.68h-1.021v6.049h1.021zm-.504-1.46c.402 0 .68-.304.68-.73 0-.419-.278-.717-.68-.717-.418 0-.693.298-.693.717 0 .426.275.73.693.73m-4.5 9.31c-.718 0-1.071-.328-1.071-.968 0-.607.329-.894.616-1.058.139.025.303.037.468.037h.766c.62 0 1.022.226 1.022.803 0 .62-.566 1.186-1.801 1.186m2.847-1.333c0-1.148-.858-1.604-2.001-1.604h-.772c-.439 0-.615-.176-.615-.426 0-.316.291-.48.492-.566.099.012.201.012.316.012 1.181 0 2.087-.771 2.087-2.054 0-.403-.098-.78-.286-1.083h.754l.139-.796h-1.841a2.2 2.2 0 0 0-.804-.152c-1.136 0-2.054.669-2.054 2.031 0 .959.413 1.562 1.033 1.853v.025c-.152.073-.73.328-.73.98 0 .382.139.656.39.845v.025c-.28.151-1.009.582-1.009 1.476 0 1.046.693 1.636 1.981 1.636 1.788 0 2.92-.906 2.92-2.202m-1.485-4.638c0 .869-.48 1.209-1.058 1.209-.554 0-1.046-.34-1.046-1.209 0-.87.492-1.211 1.07-1.211.554 0 1.034.341 1.034 1.211m-3.655-1.892c-.102-.036-.267-.098-.553-.098-.771 0-1.1.451-1.276.931h-.024v-.82h-.931v6.049h1.021v-4.433c.151-.406.492-.82 1.132-.82.278 0 .455.073.504.098zm-4.019 5.496-.377-.717c-.14.135-.555.529-1.272.529-1.021 0-1.575-.669-1.641-2.08h3.089c.037-.291.074-.656.074-1.173 0-1.448-.706-2.194-1.85-2.194-1.264 0-2.31.96-2.31 3.1 0 2.281.96 3.253 2.486 3.253 1.145 0 1.637-.541 1.801-.718m-2.042-4.803c.643 0 .983.493.983 1.326 0 .189-.011.352-.024.438h-2.194c.053-1.131.516-1.764 1.235-1.764m-5.554.037c.705 0 1.045.419 1.045 1.44v3.892h1.018v-3.97c0-1.636-.682-2.231-1.764-2.231-.943 0-1.485.619-1.6.832h-.024v-.68H93.6v6.049h1.018v-4.663c.204-.25.619-.669 1.239-.669m-3.746-3.363h-4.269v8.695h4.446l.066-.906h-3.417v-3.051h2.847v-.87h-2.847v-2.999h3.101zm-9.674 8.051h.024v.644h.931v-9.023l-1.022.115v2.9a2.2 2.2 0 0 0-.852-.152c-1.289 0-2.675.779-2.675 3.224 0 2.206.972 3.088 2.116 3.088.96 0 1.362-.607 1.478-.796m-1.198-.11c-.706 0-1.338-.558-1.338-2.219 0-1.714.746-2.318 1.69-2.318.365 0 .603.099.779.214v3.728a1.34 1.34 0 0 1-1.131.595m-5.71-4.578c.705 0 1.046.419 1.046 1.44v3.892h1.021v-3.97c0-1.636-.68-2.231-1.764-2.231-.943 0-1.485.619-1.599.832h-.024v-.68h-.932v6.049h1.018v-4.663c.205-.25.618-.669 1.234-.669m-4.774 4.652h.024v.68h.936v-6.049h-1.022v4.626c-.2.25-.607.669-1.222.669-.681 0-1.009-.406-1.009-1.398v-3.897H67.44v3.97c0 1.637.669 2.231 1.74 2.231.919 0 1.46-.619 1.575-.832" style="fill:#231f20" transform="translate(-103.233 -439.266)scale(4.16667)"/></svg>