<?xml version="1.0" encoding="UTF-8" standalone="no"?>
<!DOCTYPE svg PUBLIC "-//W3C//DTD SVG 1.1//EN" "http://www.w3.org/Graphics/SVG/1.1/DTD/svg11.dtd">
<svg width="100%" height="100%" viewBox="0 0 1107 202" version="1.1" xmlns="http://www.w3.org/2000/svg" xmlns:xlink="http://www.w3.org/1999/xlink" xml:space="preserve" xmlns:serif="http://www.serif.com/" style="fill-rule:evenodd;clip-rule:evenodd;stroke-linejoin:round;stroke-miterlimit:2;">
    <g transform="matrix(1,0,0,1,-449.285209,-194.404279)">
        <g transform="matrix(1.655894,0,0,1.655894,-57.779409,-268.89657)">
            <g transform="matrix(2.072897,0,0,2.072897,-924.634829,165.284897)">
                <g transform="matrix(0.041645,0,0,0.041964,559.088818,-103.559313)">
                    <path d="M883.407,4985.494L950.855,4372.75L1250.368,5012.93C1251.511,5012.93 1549.881,4372.75 1549.881,4372.75L1617.329,4985.494C1649.104,4984.867 1667.607,4984.795 1667.629,4985.494L1580.747,4196.7L1250.368,4902.042L919.989,4196.7L833.107,4985.494L883.407,4985.494Z" style="fill:rgb(251,250,244);fill-rule:nonzero;"/>
                </g>
                <g transform="matrix(0.041645,0,0,-0.041964,563.430567,282.384956)">
                    <path d="M2761.652,4985.494L2816.524,4985.494L2499.864,4200.129L2178.63,4985.494L2233.503,4985.494L2335.246,4735.138L2659.909,4735.138L2761.652,4985.494ZM2353.537,4689.41L2498.72,4328.166L2641.618,4689.41L2353.537,4689.41Z" style="fill:rgb(251,250,244);fill-rule:nonzero;"/>
                </g>
                <g transform="matrix(0.041645,0,0,0.041964,568.737149,-103.559313)">
                    <path d="M3724.209,4985.494L3474.996,4625.392C3492.144,4625.392 3528.725,4624.249 3568.737,4610.531C3663.621,4578.522 3696.773,4500.786 3696.773,4425.336C3696.773,4365.891 3677.339,4303.016 3617.894,4261.861C3567.594,4227.566 3515.007,4222.993 3456.705,4222.993L3346.96,4222.993L3346.96,4985.494L3397.26,4985.494L3397.26,4625.392L3420.123,4625.392L3667.05,4985.494L3724.209,4985.494ZM3397.26,4268.72L3460.135,4268.72C3489.857,4268.72 3544.73,4273.293 3576.739,4291.584C3606.462,4307.588 3644.187,4347.6 3644.187,4424.193C3644.187,4522.506 3579.025,4579.665 3470.423,4579.665L3397.26,4579.665L3397.26,4268.72Z" style="fill:rgb(251,250,244);fill-rule:nonzero;"/>
                </g>
                <g transform="matrix(0.041645,0,0,0.041964,568.737149,-103.559313)">
                    <path d="M4444.413,4985.494C4511.86,4985.494 4629.608,4975.205 4725.635,4879.178C4806.801,4798.012 4835.38,4688.267 4835.38,4604.815C4835.38,4521.363 4806.801,4410.475 4725.635,4329.309C4629.608,4233.282 4511.86,4222.993 4444.413,4222.993L4293.513,4222.993L4293.513,4985.494L4444.413,4985.494ZM4343.813,4268.72L4443.269,4268.72C4643.326,4268.72 4782.794,4409.331 4782.794,4604.815C4782.794,4802.585 4644.469,4939.767 4443.269,4939.767L4343.813,4939.767L4343.813,4268.72Z" style="fill:rgb(251,250,244);fill-rule:nonzero;"/>
                </g>
                <g transform="matrix(0.041645,0,0,0.041964,568.737149,-103.559313)">
                    <path d="M5411.543,4222.993L5411.543,4699.699C5411.543,4783.151 5416.115,4838.024 5454.984,4895.183C5512.143,4978.635 5602.454,4998.069 5671.045,4998.069C5739.635,4998.069 5829.947,4978.635 5887.106,4895.183C5925.974,4838.024 5930.546,4783.151 5930.546,4699.699L5930.546,4222.993L5880.246,4222.993L5880.246,4699.699C5880.246,4771.719 5876.817,4818.59 5848.237,4864.317C5803.653,4936.337 5720.201,4952.342 5671.045,4952.342C5621.888,4952.342 5538.436,4936.337 5493.852,4864.317C5465.272,4818.59 5461.843,4771.719 5461.843,4699.699L5461.843,4222.993L5411.543,4222.993Z" style="fill:rgb(251,250,244);fill-rule:nonzero;"/>
                </g>
            </g>
            <g transform="matrix(0.1005,0,0,0.1005,780.954042,274.081327)">
                <g transform="matrix(13.813671,0,0,13.813671,1629.669073,584.515455)">
                    <path d="M0,-37.978L-45.357,-11.792C-45.877,-11.492 -46.197,-10.937 -46.197,-10.337C-46.197,-9.737 -45.877,-9.182 -45.357,-8.882L-29.829,0.075C-29.573,0.223 -29.284,0.3 -28.989,0.3L-28.554,0.3C-28.259,0.3 -27.97,0.222 -27.714,0.075L1.451,-16.767C1.704,-16.913 1.914,-17.123 2.062,-17.375L2.29,-17.766C2.44,-18.022 2.519,-18.315 2.519,-18.612L2.519,-36.524C2.519,-37.123 2.199,-37.678 1.68,-37.978C1.16,-38.278 0.52,-38.278 0,-37.978" style="fill:rgb(141,105,191);"/>
                </g>
                <g transform="matrix(13.813671,0,0,13.813671,1916.25026,1142.094628)">
                    <path d="M0,-45.325C0.52,-45.025 0.84,-44.471 0.84,-43.871L0.84,-43.87C0.84,-43.27 0.52,-42.715 0,-42.415L-27.936,-26.283C-28.455,-25.983 -28.775,-25.428 -28.775,-24.828L-28.775,7.428C-28.775,8.721 -30.174,9.528 -31.294,8.882L-46.806,-0.073C-47.065,-0.223 -47.279,-0.438 -47.427,-0.698L-47.646,-1.083C-47.79,-1.336 -47.865,-1.622 -47.865,-1.913C-47.865,-1.913 -47.912,-29.775 -47.865,-35.549C-47.862,-35.899 -47.756,-36.256 -47.585,-36.562C-47.408,-36.877 -47.14,-37.239 -46.806,-37.445C-44.874,-38.632 -35.994,-43.686 -35.994,-43.686L-17.643,-54.282C-17.388,-54.43 -17.098,-54.507 -16.803,-54.507L-16.357,-54.507C-16.062,-54.507 -15.773,-54.43 -15.518,-54.282L0,-45.325" style="fill:rgb(141,105,191);"/>
                </g>
                <g transform="matrix(13.813671,0,0,13.813671,1205.681915,1024.643888)">
                    <path d="M0,-28.236C-0.148,-28.494 -0.361,-28.709 -0.619,-28.857L-13.577,-36.332L-13.577,-36.338C-13.577,-36.338 -27.317,-44.394 -30.336,-46.005C-30.734,-46.217 -31.291,-46.217 -31.689,-46.005C-34.708,-44.394 -48.452,-36.338 -48.452,-36.338L-48.452,-36.323L-61.233,-28.942C-61.491,-28.793 -61.704,-28.579 -61.852,-28.32L-62.072,-27.934C-62.217,-27.68 -62.294,-27.393 -62.294,-27.101L-62.294,-9.182C-62.294,-8.582 -61.973,-8.027 -61.453,-7.727C-60.934,-7.427 -60.294,-7.427 -59.774,-7.727L-31.854,-23.846C-31.334,-24.146 -30.694,-24.146 -30.174,-23.846L-19.508,-17.688C-18.989,-17.388 -18.668,-16.834 -18.668,-16.234L-18.668,16.012C-18.668,16.613 -18.347,17.168 -17.826,17.468L-17.823,17.47C-17.304,17.769 -16.665,17.768 -16.146,17.469L-0.619,8.513C-0.361,8.364 -0.148,8.149 0,7.891L0.22,7.505C0.365,7.251 0.442,6.964 0.442,6.672L0.442,-27.017C0.442,-27.31 0.365,-27.597 0.22,-27.851L0,-28.236Z" style="fill:rgb(141,105,191);"/>
                </g>
            </g>
        </g>
    </g>
</svg>
