<svg xmlns="http://www.w3.org/2000/svg" xml:space="preserve" style="fill-rule:evenodd;clip-rule:evenodd;stroke-miterlimit:2" viewBox="0 0 354 224"><path d="M316.931 143.979h2.812v.633h-2.093v1.467h1.906v.633h-1.906v1.654h2.093v.633h-2.812zm4.718 3.099-1.194-1.747h.841l.799 1.309.812-1.309h.756l-1.18 1.747 1.295 1.921h-.835l-.906-1.439-.906 1.439h-.806zm2.862-1.747h.676v3.668h-.676zm.719-.82h-.762v-.762h.762zm.92 3.769c.266.172.648.259.842.259.309 0 .69-.13.69-.526 0-.668-1.589-.611-1.589-1.639 0-.763.568-1.129 1.295-1.129.316 0 .575.064.841.143l-.058.59c-.151-.093-.553-.187-.712-.187-.345 0-.647.144-.647.446 0 .748 1.59.532 1.59 1.705 0 .783-.626 1.143-1.281 1.143-.345 0-.697-.036-1.007-.201zm5.02-2.403h-.971v2.007c0 .424.259.655.568.655.209 0 .36-.065.461-.13v.576c-.151.043-.36.1-.576.1-.697 0-1.129-.331-1.129-1.064v-2.144h-.827v-.546h.827v-.849l.676-.216v1.065h.971zm3.222.935c0-.561-.331-1.021-.913-1.021-.662 0-.935.547-.986 1.021zm.439 2.036c-.259.093-.554.237-1.158.237-1.302 0-1.899-.791-1.899-1.985 0-1.086.683-1.855 1.719-1.855 1.223 0 1.618.891 1.618 2.071h-2.618a1.2 1.2 0 0 0 1.209 1.223c.445 0 .963-.231 1.129-.367zm1.186-3.517h.654v.582h.015c.201-.417.69-.668 1.201-.668.949 0 1.374.589 1.374 1.575v2.179h-.676V147.1c0-.856-.187-1.273-.777-1.309-.77 0-1.115.619-1.115 1.51v1.698h-.676zm4.128 3.078 2.114-2.532h-2.014v-.546h2.798v.59l-2.114 2.531h2.193v.547h-2.977zm6.429-1.201c0-.762-.352-1.417-1.071-1.417-.684 0-1.022.741-1.022 1.367 0 .69.389 1.294 1.022 1.294.632 0 1.071-.561 1.071-1.244m.676 1.633c0 1.115-.575 1.754-1.891 1.754-.389 0-.727-.05-1.316-.251l.071-.626c.518.238.828.331 1.324.331.712 0 1.136-.482 1.136-1.259v-.359h-.014c-.288.381-.763.568-1.23.568-1.05 0-1.568-.856-1.568-1.805 0-.943.532-1.949 1.64-1.949.647 0 1.007.237 1.208.632h.015v-.546h.625zm1.15-3.51h.633v.568h.015c.18-.381.568-.654.956-.654.202 0 .302.021.446.05v.604a1 1 0 0 0-.374-.065c-.604 0-1 .576-1 1.496v1.669h-.676zm4.675-1.28h.676v.719h-.676zm-1.179 0h.676v.719h-.676zm2.546 4.948h-.655v-.583h-.014c-.202.417-.691.669-1.201.669-.95 0-1.374-.59-1.374-1.575v-2.179h.676v1.899c0 .856.187 1.273.777 1.309.769 0 1.115-.619 1.115-1.511v-1.697h.676zm1.15-3.668h.654v.582h.015c.201-.417.69-.668 1.201-.668.949 0 1.374.589 1.374 1.575v2.179h-.677V147.1c0-.856-.187-1.273-.776-1.309-.77 0-1.115.619-1.115 1.51v1.698h-.676zm5.882 3.208c.763 0 1.079-.756 1.079-1.367 0-.683-.352-1.381-1.086-1.381-.733 0-1.021.691-1.007 1.359-.014.576.288 1.389 1.014 1.389m1.108-.058h-.014c-.18.273-.597.604-1.252.604-1.107 0-1.575-.985-1.575-1.985 0-.985.518-1.855 1.582-1.855.641 0 1.007.251 1.216.589h.014v-2.229h.676v5.394h-.647zm5.041.518h-.654v-.583h-.015c-.201.417-.69.669-1.201.669-.949 0-1.373-.59-1.373-1.575v-2.179h.676v1.899c0 .856.187 1.273.776 1.309.77 0 1.115-.619 1.115-1.511v-1.697h.676zm1.15-3.668h.655v.582h.014c.202-.417.691-.668 1.201-.668.95 0 1.374.589 1.374 1.575v2.179h-.676V147.1c0-.856-.187-1.273-.777-1.309-.769 0-1.114.619-1.114 1.51v1.698h-.677zm6.962 1.877c0-.762-.352-1.417-1.072-1.417-.683 0-1.021.741-1.021 1.367 0 .69.388 1.294 1.021 1.294s1.072-.561 1.072-1.244m.676 1.633c0 1.115-.575 1.754-1.891 1.754-.389 0-.727-.05-1.317-.251l.072-.626c.518.238.827.331 1.324.331.712 0 1.136-.482 1.136-1.259v-.359h-.014c-.288.381-.763.568-1.23.568-1.05 0-1.568-.856-1.568-1.805 0-.943.532-1.949 1.64-1.949.647 0 1.007.237 1.208.632h.014v-.546h.626zm3.524-2.029c0-.561-.331-1.021-.914-1.021-.662 0-.935.547-.985 1.021zm.438 2.036c-.259.093-.553.237-1.158.237-1.301 0-1.898-.791-1.898-1.985 0-1.086.683-1.855 1.719-1.855 1.222 0 1.618.891 1.618 2.071h-2.618a1.2 1.2 0 0 0 1.208 1.223c.446 0 .964-.231 1.129-.367zm1.187-3.517h.654v.582h.015c.201-.417.69-.668 1.201-.668.949 0 1.373.589 1.373 1.575v2.179h-.676V147.1c0-.856-.187-1.273-.776-1.309-.77 0-1.115.619-1.115 1.51v1.698h-.676zm-62.55 9.621c-.144 0-.288-.014-.432-.014-.367 0-1.273.057-1.273.705 0 .388.374.597.683.597.669 0 1.022-.418 1.022-.964zm-2.007-1.661a2.33 2.33 0 0 1 1.208-.345c1.05 0 1.475.517 1.475 1.517v1.518c0 .417.014.611.028.719h-.632v-.475h-.015a1.36 1.36 0 0 1-1.136.561c-.791 0-1.345-.345-1.345-1.143 0-.921 1.007-1.209 1.704-1.209.266 0 .454 0 .72.015 0-.633-.231-.957-.907-.957-.381 0-.791.144-1.064.374zm7.069 3.409h-.654v-.583h-.014c-.202.418-.691.669-1.202.669-.949 0-1.373-.589-1.373-1.575v-2.179h.676v1.899c0 .856.187 1.273.777 1.309.769 0 1.114-.619 1.114-1.511v-1.697h.676zm.877-.719c.266.172.648.259.842.259.309 0 .69-.13.69-.525 0-.669-1.589-.612-1.589-1.64 0-.763.568-1.129 1.294-1.129.317 0 .576.064.842.143l-.058.59c-.151-.093-.553-.187-.712-.187-.345 0-.647.144-.647.446 0 .748 1.59.532 1.59 1.705 0 .784-.626 1.143-1.281 1.143-.345 0-.697-.036-1.007-.201zm6.559.259c.762 0 1.079-.755 1.079-1.367 0-.683-.352-1.381-1.086-1.381s-1.021.691-1.007 1.359c-.014.576.288 1.389 1.014 1.389m1.108-.058h-.015c-.179.273-.597.604-1.251.604-1.108 0-1.575-.985-1.575-1.985 0-.985.518-1.855 1.582-1.855.64 0 1.007.251 1.216.589h.014v-2.229h.676v5.394h-.647zm4.171-1.669c0-.56-.331-1.021-.914-1.021-.661 0-.935.547-.985 1.021zm.438 2.036c-.259.093-.553.237-1.158.237-1.301 0-1.898-.791-1.898-1.985 0-1.086.683-1.855 1.719-1.855 1.222 0 1.618.892 1.618 2.071h-2.618a1.2 1.2 0 0 0 1.208 1.223c.446 0 .964-.231 1.129-.367zm1.187-3.517h.632v.568h.015c.18-.381.568-.654.956-.654.202 0 .303.021.446.05v.604a1 1 0 0 0-.374-.065c-.604 0-.999.576-.999 1.496v1.669h-.676zm4.235-1.352h.791l1.202 4.301h.014l1.072-4.301h1.021l1.086 4.301h.014l1.201-4.301h.763l-1.547 5.02h-.927l-1.094-4.387h-.014l-1.1 4.387h-.964zm7.839 1.352h.676v3.668h-.676zm.719-.82h-.762v-.762h.762zm.921 3.769c.266.172.647.259.841.259.309 0 .691-.13.691-.525 0-.669-1.59-.612-1.59-1.64 0-.763.568-1.129 1.295-1.129.316 0 .575.064.841.143l-.057.59c-.151-.093-.554-.187-.712-.187-.346 0-.648.144-.648.446 0 .748 1.59.532 1.59 1.705 0 .784-.626 1.143-1.28 1.143-.346 0-.698-.036-1.007-.201zm2.797 0c.266.172.647.259.841.259.31 0 .691-.13.691-.525 0-.669-1.59-.612-1.59-1.64 0-.763.569-1.129 1.295-1.129.316 0 .575.064.841.143l-.057.59c-.151-.093-.554-.187-.712-.187-.345 0-.647.144-.647.446 0 .748 1.589.532 1.589 1.705 0 .784-.626 1.143-1.28 1.143-.345 0-.698-.036-1.007-.201zm5.444-1.468c0-.56-.331-1.021-.913-1.021-.662 0-.935.547-.986 1.021zm.439 2.036c-.259.093-.554.237-1.158.237-1.302 0-1.899-.791-1.899-1.985 0-1.086.683-1.855 1.719-1.855 1.223 0 1.618.892 1.618 2.071h-2.618c0 .726.569 1.223 1.209 1.223.446 0 .963-.231 1.129-.367zm1.186-3.517h.655v.583h.014c.201-.418.69-.669 1.201-.669.949 0 1.374.589 1.374 1.575v2.179h-.676v-1.899c0-.856-.187-1.273-.777-1.309-.77 0-1.115.619-1.115 1.511v1.697h-.676zm4.121 2.949c.266.172.647.259.841.259.309 0 .691-.13.691-.525 0-.669-1.59-.612-1.59-1.64 0-.763.568-1.129 1.295-1.129.316 0 .575.064.841.143l-.057.59c-.151-.093-.554-.187-.712-.187-.345 0-.648.144-.648.446 0 .748 1.59.532 1.59 1.705 0 .784-.626 1.143-1.28 1.143-.345 0-.698-.036-1.007-.201zm5.401-2.331a2 2 0 0 0-.734-.158c-.755 0-1.179.676-1.179 1.374 0 .654.352 1.374 1.222 1.374.23 0 .518-.072.727-.209l.05.604c-.28.13-.604.151-.849.151-1.107 0-1.869-.87-1.869-1.92 0-1.115.747-1.92 1.869-1.92.274 0 .626.064.82.143zm.862-2.344h.677v2.251h.014c.244-.388.669-.611 1.179-.611.95 0 1.374.589 1.374 1.575v2.179h-.676v-1.899c0-.856-.187-1.273-.777-1.309-.769 0-1.114.619-1.114 1.511v1.697h-.677zm6.573 3.646c-.143 0-.287-.014-.431-.014-.367 0-1.273.057-1.273.705 0 .388.374.597.683.597.669 0 1.021-.418 1.021-.964zm-2.006-1.661a2.33 2.33 0 0 1 1.208-.345c1.05 0 1.475.517 1.475 1.517v1.518c0 .417.014.611.028.719h-.633v-.475h-.014a1.36 1.36 0 0 1-1.136.561c-.792 0-1.345-.345-1.345-1.143 0-.921 1.007-1.209 1.704-1.209.266 0 .453 0 .719.015 0-.633-.23-.957-.906-.957-.381 0-.791.144-1.064.374zm4.264.287h-.863v-.546h.863v-.338c0-.892.231-1.475 1.23-1.475.173 0 .317.022.453.044l-.028.546a1 1 0 0 0-.324-.043c-.583 0-.655.374-.655.87v.396h.972v.546h-.972v3.122h-.676zm4.308 0h-.971v2.007c0 .424.259.655.568.655.209 0 .36-.065.461-.13v.576c-.151.043-.36.1-.576.1-.697 0-1.129-.331-1.129-1.064v-2.144h-.827v-.546h.827v-.849l.676-.215v1.064h.971zm-69.829-30.441c.077-.578.115-1.04.115-1.502 0-2.31-1.425-3.966-4.158-3.966-2.965 0-5.237 2.58-6.007 5.468zm.462 11.359c-1.887.462-3.851.808-5.814.808-4.775 0-9.049-1.925-9.049-8.856 0-5.429 3.812-11.705 10.743-11.705 4.736 0 7.393 2.849 7.393 7.508 0 1.309-.154 2.426-.347 3.581h-13.823a6.7 6.7 0 0 0-.116 1.232c0 4.12 2.542 5.314 6.046 5.314 1.809 0 3.773-.462 5.544-1.194zm34.269-19.469h2.849l-4.231 19.69h-2.849z" style="fill:#231f20;fill-rule:nonzero" transform="translate(-1255.355 -429.566)scale(4.16667)"/><path d="M350.417 115.027h2.849l-4.231 19.69h-2.849z" style="fill:none;stroke:#231f20;stroke-width:.23px" transform="translate(-1255.355 -429.566)scale(4.16667)"/><path d="M366.778 118.13c-.931-.564-2.087-.959-3.582-.959-1.862 0-3.893.734-3.893 3.075 0 3.301 6.713 3.329 6.713 8.491 0 2.962-2.059 6.319-6.798 6.319-2.285 0-3.921-.508-5.501-1.129l.903-2.595c1.157.734 2.764 1.242 4.147 1.242 2.99 0 4.259-1.862 4.259-3.497 0-4.007-6.714-3.302-6.714-8.774 0-3.583 3.273-5.614 6.517-5.614 1.636 0 3.244.31 4.739.931z" style="fill:#231f20;fill-rule:nonzero" transform="translate(-1255.355 -429.566)scale(4.16667)"/><path d="M366.778 118.13c-.931-.564-2.087-.959-3.582-.959-1.862 0-3.893.734-3.893 3.075 0 3.301 6.713 3.329 6.713 8.491 0 2.962-2.059 6.319-6.798 6.319-2.285 0-3.921-.508-5.501-1.129l.903-2.595c1.157.734 2.764 1.242 4.147 1.242 2.99 0 4.259-1.862 4.259-3.497 0-4.007-6.714-3.302-6.714-8.774 0-3.583 3.273-5.614 6.517-5.614 1.636 0 3.244.31 4.739.931z" style="fill:none;stroke:#231f20;stroke-width:.23px" transform="translate(-1255.355 -429.566)scale(4.16667)"/><path d="M385.311 117.51h-6.121l-3.696 17.207h-2.849l3.695-17.207h-6.121l.536-2.483h15.092z" style="fill:#231f20;fill-rule:nonzero" transform="translate(-1255.355 -429.566)scale(4.16667)"/><path d="M385.311 117.51h-6.121l-3.696 17.207h-2.849l3.695-17.207h-6.121l.536-2.483h15.092z" style="fill:none;stroke:#231f20;stroke-width:.23px" transform="translate(-1255.355 -429.566)scale(4.16667)"/><path d="m335.762 124.902 6.7 13.185h-6.7l-4.431-9.564-9.943 11.077-4.593-2.972 11.942-12.429-6.431-12.969h6.431l4.323 9.457 9.78-10.916 4.485 2.864z" style="fill:#ed1c24;fill-rule:nonzero" transform="translate(-1255.355 -429.566)scale(4.16667)"/><path d="M338.698 106.761a3.664 3.664 0 1 1-7.329 0 3.664 3.664 0 0 1 7.329 0" style="fill:#bbbdc0;fill-rule:nonzero" transform="translate(-1255.355 -429.566)scale(4.16667)"/></svg>