<svg xmlns="http://www.w3.org/2000/svg" xml:space="preserve" style="fill-rule:evenodd;clip-rule:evenodd;stroke-linejoin:round;stroke-miterlimit:2" viewBox="0 0 1064 242"><path d="M-27.455 789.712c0 1.048.8 1.847 1.846 1.847a1.813 1.813 0 0 0 1.847-1.847c0-1.049-.8-1.847-1.847-1.847a1.81 1.81 0 0 0-1.846 1.847m74.798-27.553c-1.699-3.149-4.75-4.744-8.102-4.744-5.952 0-8.546 4.444-8.546 8.295 0 1.3.299 2.551 1.047 3.801 1.147 1.9 2.797 2.8 6.099 4.401 2.751 1.35 4.702 2.35 5.652 2.9 2.551 1.551 3.252 3.451 3.252 5.251 0 4.401-3.552 7.702-8.054 7.702-2.301 0-4.752-.95-6.251-2.851-.499-.6-1.346-1.9-1.795-3.2l-1.9.9c.3.85.85 2.15 2.149 3.65 1.247 1.451 3.445 3.495 7.747 3.495 5.703 0 10.397-4.145 10.397-9.746 0-3.7-2.094-5.451-3.544-6.451-1.701-1.2-3.351-1.9-6.653-3.501-3.351-1.65-5.853-2.85-5.853-6.451 0-3.351 2.252-6.201 6.203-6.201.901 0 4.502.1 6.553 4.101zm61.998 13.2c5.753 0 9.697-3.245 9.697-8.797 0-5.703-4.294-8.697-9.747-8.697h-6.446v33.344h2.193v-15.85zm-4.303-15.5h4.053c4.852 0 7.654 2.601 7.654 6.753 0 4.202-2.952 6.753-7.304 6.753h-4.403zm84.257 31.35h2.393l-13.846-34.344-14.047 34.344h2.393l4.452-10.95h14.204zm-17.855-12.944 6.352-15.8 6.251 15.8zm97.748-16.506c-1-.95-4.85-4.344-11.2-4.344-9.6 0-17.293 7.595-17.293 17.197 0 9.302 7.393 17.147 17.393 17.147 3.6 0 7.7-1.147 11.1-4.145v-2.9c-3.4 3.701-7.85 5.051-11.2 5.051-6.75 0-15-5.151-15-15.053 0-8.452 6.4-15.303 14.95-15.303 4.3 0 8.4 1.9 11.25 5.251zm69.8-3.894h-15.993v33.344h15.993v-1.994h-13.8v-15.256h13.5v-1.994h-13.5v-12.106h13.8z" style="fill:#fbfaf4;fill-rule:nonzero" transform="translate(453.077 -1207.143)scale(1.80105)"/><path d="m0 62.629 5.506-50.405 24.451 52.662c.093 0 24.45-52.662 24.45-52.662l5.508 50.405c2.593-.052 4.104-.058 4.105 0L56.928-2.257 29.957 55.764 2.987-2.257l-7.094 64.886z" style="fill:#fbfaf4;fill-rule:nonzero" transform="translate(409.859 27.857)scale(1.51703)"/><path d="m0-15.891 11.852 29.715 11.665-29.715zm33.317-24.356h4.479l-25.85 64.603-26.226-64.603h4.48l8.307 20.594h26.504z" style="fill:#fbfaf4;fill-rule:nonzero" transform="translate(604.838 87.352)scale(1.51703)"/><path d="M0-55.2h5.133c2.426 0 6.905.378 9.519 1.881 2.427 1.316 5.507 4.608 5.507 10.908 0 8.088-5.32 12.79-14.186 12.79H0zM26.691 3.762 6.346-25.859c1.4 0 4.386-.095 7.653-1.223 7.747-2.633 10.452-9.028 10.452-15.235 0-4.89-1.586-10.062-6.44-13.447-4.105-2.822-8.398-3.198-13.158-3.198h-8.959V3.762H0v-29.621h1.867L22.026 3.762z" style="fill:#fbfaf4;fill-rule:nonzero" transform="translate(749.878 117.16)scale(1.51703)"/><path d="M0-55.2h8.119c16.332 0 27.718 11.567 27.718 27.648C35.837-11.284 24.544.002 8.119.002H0zM8.211 3.762c5.508 0 15.121-.846 22.959-8.746 6.627-6.676 8.959-15.704 8.959-22.568 0-6.866-2.332-15.987-8.959-22.664-7.838-7.9-17.451-8.746-22.959-8.746H-4.106V3.762z" style="fill:#fbfaf4;fill-rule:nonzero" transform="translate(867.104 117.16)scale(1.51703)"/><path d="M0-63.759v39.214c0 6.865.373 11.38 3.546 16.081C8.211-1.598 15.586 0 21.185 0s12.971-1.598 17.638-8.464c3.173-4.701 3.546-9.216 3.546-16.081v-39.214h-4.106v39.214c0 5.925-.28 9.781-2.614 13.543-3.639 5.923-10.452 7.24-14.464 7.24-4.014 0-10.826-1.317-14.467-7.24-2.332-3.762-2.611-7.618-2.611-13.543v-39.214z" style="fill:#fbfaf4;fill-rule:nonzero" transform="translate(999.338 124.437)scale(1.51703)"/><path d="m0-67.598-80.732 46.609a2.99 2.99 0 0 0 0 5.18L-53.093.133c.455.264.969.401 1.494.401h.775c.525 0 1.04-.139 1.495-.401L2.583-29.844c.45-.26.824-.634 1.087-1.082l.406-.696c.267-.456.408-.977.408-1.506V-65.01A2.99 2.99 0 0 0 0-67.598" style="fill:#8d69bf" transform="translate(253.242 103.157)scale(1.51703)"/><path d="M0-81.292a2.99 2.99 0 0 1 1.495 2.588v.002c0 1.068-.57 2.056-1.495 2.59l-49.724 28.714a2.99 2.99 0 0 0-1.494 2.59v57.413c0 2.302-2.49 3.738-4.483 2.588L-83.312-.747a3 3 0 0 1-1.105-1.112l-.39-.685a3 3 0 0 1-.389-1.478s-.083-49.591 0-59.87a3.8 3.8 0 0 1 .498-1.801c.314-.563.791-1.207 1.386-1.573 3.439-2.114 19.245-11.109 19.245-11.109l32.663-18.86c.454-.263.971-.4 1.496-.4h.793c.525 0 1.04.137 1.494.4z" style="fill:#8d69bf" transform="translate(311.411 217.385)scale(1.51703)"/><path d="M0-49.881a3 3 0 0 0-1.102-1.105l-23.064-13.306v-.01s-24.457-14.339-29.83-17.206c-.708-.378-1.7-.378-2.408 0-5.374 2.867-29.837 17.206-29.837 17.206v.027l-22.749 13.137a3 3 0 0 0-1.102 1.107l-.392.687a3 3 0 0 0-.395 1.483v31.895a2.993 2.993 0 0 0 4.486 2.59l49.695-28.691a2.99 2.99 0 0 1 2.991 0l18.984 10.961a2.99 2.99 0 0 1 1.495 2.588v57.395c0 1.07.572 2.058 1.499 2.592l.005.003a2.99 2.99 0 0 0 2.986-.001L-1.102 15.53A3 3 0 0 0 0 14.422l.391-.687c.259-.452.395-.962.395-1.482v-59.964c0-.522-.136-1.033-.395-1.485z" style="fill:#8d69bf" transform="translate(168.213 192.92)scale(1.51703)"/></svg>