<?xml version="1.0" encoding="UTF-8"?>
<svg xmlns="http://www.w3.org/2000/svg" version="1.1" viewBox="0 0 450 135">
  <defs>
    <style>
      .cls-1 {
        fill: #303a3f;
      }
    </style>
  </defs>
  <g>
    <g id="Ebene_1">
      <g>
        <path class="cls-1" d="M217.3,74h1.9c.6,0,1.1-.2,1.5-.5.4-.3.5-.8.5-1.3s-.2-1-.5-1.3c-.3-.3-.8-.5-1.5-.5h-2v3.6ZM219.4,75.5h-2.1v4.1h-1.9v-10.8h3.8c1.2,0,2.2.3,2.9.8s1,1.4,1,2.4-.2,1.3-.5,1.8c-.3.5-.8.9-1.5,1.1l2.4,4.5h0c0,0-2,0-2,0l-2.2-4.1Z"></path>
        <path class="cls-1" d="M233.1,74c0-1.2-.2-2.1-.7-2.7-.5-.6-1.1-1-1.9-1s-1.4.3-1.9,1c-.5.6-.7,1.5-.7,2.7v.6c0,1.2.2,2.1.7,2.7.5.6,1.1,1,1.9,1s1.5-.3,1.9-.9c.4-.6.7-1.6.7-2.8v-.6ZM235,74.6c0,1.1-.2,2-.5,2.8-.4.8-.9,1.4-1.6,1.8-.7.4-1.5.6-2.3.6s-1.7-.2-2.3-.6c-.7-.4-1.2-1-1.6-1.8-.4-.8-.6-1.7-.6-2.7v-.6c0-1.1.2-2,.6-2.8.4-.8.9-1.4,1.6-1.8.7-.4,1.5-.6,2.3-.6s1.7.2,2.3.6c.7.4,1.2,1,1.6,1.8.4.8.6,1.7.6,2.8v.6Z"></path>
        <path class="cls-1" d="M245,74c0-1.2-.2-2.1-.7-2.7-.5-.6-1.1-1-1.9-1s-1.4.3-1.9,1c-.5.6-.7,1.5-.7,2.7v.6c0,1.2.2,2.1.7,2.7.5.6,1.1,1,1.9,1s1.5-.3,1.9-.9c.4-.6.7-1.6.7-2.8v-.6ZM246.9,74.6c0,1.1-.2,2-.5,2.8-.4.8-.9,1.4-1.6,1.8-.7.4-1.5.6-2.3.6s-1.7-.2-2.3-.6c-.7-.4-1.2-1-1.6-1.8-.4-.8-.6-1.7-.6-2.7v-.6c0-1.1.2-2,.6-2.8s.9-1.4,1.6-1.8c.7-.4,1.5-.6,2.3-.6s1.7.2,2.3.6c.7.4,1.2,1,1.6,1.8.4.8.6,1.7.6,2.8v.6Z"></path>
        <path class="cls-1" d="M252.6,68.9l3.1,8.3,3.1-8.3h2.4v10.8h-1.9v-3.6l.2-4.7-3.2,8.3h-1.3l-3.2-8.3.2,4.7v3.6h-1.9v-10.8h2.4Z"></path>
        <path class="cls-1" d="M276.3,75.1h-4.3v4.6h-1.9v-10.8h6.8v1.5h-5v3.2h4.3v1.5Z"></path>
        <path class="cls-1" d="M286.5,74c0-1.2-.2-2.1-.7-2.7-.5-.6-1.1-1-1.9-1s-1.4.3-1.9,1c-.5.6-.7,1.5-.7,2.7v.6c0,1.2.2,2.1.7,2.7.5.6,1.1,1,1.9,1s1.5-.3,1.9-.9c.4-.6.7-1.6.7-2.8v-.6ZM288.4,74.6c0,1.1-.2,2-.5,2.8-.4.8-.9,1.4-1.6,1.8-.7.4-1.5.6-2.3.6s-1.7-.2-2.3-.6c-.7-.4-1.2-1-1.6-1.8-.4-.8-.6-1.7-.6-2.7v-.6c0-1.1.2-2,.6-2.8.4-.8.9-1.4,1.6-1.8.7-.4,1.5-.6,2.3-.6s1.7.2,2.3.6c.7.4,1.2,1,1.6,1.8.4.8.6,1.7.6,2.8v.6Z"></path>
        <path class="cls-1" d="M293.6,74h1.9c.6,0,1.1-.2,1.5-.5.4-.3.5-.8.5-1.3s-.2-1-.5-1.3c-.3-.3-.8-.5-1.5-.5h-2v3.6ZM295.7,75.5h-2.1v4.1h-1.9v-10.8h3.8c1.2,0,2.2.3,2.9.8.7.6,1,1.4,1,2.4s-.2,1.3-.5,1.8c-.3.5-.8.9-1.5,1.1l2.4,4.5h0c0,0-2,0-2,0l-2.2-4.1Z"></path>
        <rect class="cls-1" x="215.6" y="87.1" width="1.9" height="10.8"></rect>
        <path class="cls-1" d="M229.7,97.9h-1.9l-4.8-7.6v7.6h-1.9v-10.8h1.9l4.8,7.7v-7.7h1.9v10.8Z"></path>
        <path class="cls-1" d="M241.9,97.9h-1.9l-4.8-7.6v7.6h-1.9v-10.8h1.9l4.8,7.7v-7.7h1.9v10.8Z"></path>
        <path class="cls-1" d="M252.3,92.2c0-1.2-.2-2.1-.7-2.7-.5-.6-1.1-1-1.9-1s-1.4.3-1.9,1c-.5.6-.7,1.5-.7,2.7v.6c0,1.2.2,2.1.7,2.7.5.6,1.1,1,1.9,1s1.5-.3,1.9-.9c.4-.6.7-1.6.7-2.8v-.6ZM254.2,92.8c0,1.1-.2,2-.5,2.8-.4.8-.9,1.4-1.6,1.8-.7.4-1.5.6-2.3.6s-1.7-.2-2.3-.6c-.7-.4-1.2-1-1.6-1.8-.4-.8-.6-1.7-.6-2.7v-.6c0-1.1.2-2,.6-2.8.4-.8.9-1.4,1.6-1.8.7-.4,1.5-.6,2.3-.6s1.7.2,2.3.6c.7.4,1.2,1,1.6,1.8.4.8.6,1.7.6,2.8v.6Z"></path>
        <path class="cls-1" d="M261.1,95.5l2.7-8.4h2.1l-3.9,10.8h-1.8l-3.9-10.8h2l2.7,8.4Z"></path>
        <path class="cls-1" d="M270.4,93.9h3.1l-1.6-4.5-1.6,4.5ZM274,95.4h-4.2l-.9,2.5h-1.9l4.1-10.8h1.7l4.1,10.8h-2l-.9-2.5Z"></path>
        <path class="cls-1" d="M286.4,88.6h-3.4v9.3h-1.9v-9.3h-3.3v-1.5h8.5v1.5Z"></path>
        <rect class="cls-1" x="289.4" y="87.1" width="1.9" height="10.8"></rect>
        <path class="cls-1" d="M301.7,92.2c0-1.2-.2-2.1-.7-2.7-.5-.6-1.1-1-1.9-1s-1.4.3-1.9,1c-.5.6-.7,1.5-.7,2.7v.6c0,1.2.2,2.1.7,2.7.5.6,1.1,1,1.9,1s1.5-.3,1.9-.9c.4-.6.7-1.6.7-2.8v-.6ZM303.6,92.8c0,1.1-.2,2-.5,2.8-.4.8-.9,1.4-1.6,1.8-.7.4-1.5.6-2.3.6s-1.7-.2-2.3-.6c-.7-.4-1.2-1-1.6-1.8-.4-.8-.6-1.7-.6-2.7v-.6c0-1.1.2-2,.6-2.8.4-.8.9-1.4,1.6-1.8.7-.4,1.5-.6,2.3-.6s1.7.2,2.3.6c.7.4,1.2,1,1.6,1.8.4.8.6,1.7.6,2.8v.6Z"></path>
        <path class="cls-1" d="M315.4,97.9h-1.9l-4.8-7.6v7.6h-1.9v-10.8h1.9l4.8,7.7v-7.7h1.9v10.8Z"></path>
        <path class="cls-1" d="M326.6,93.9h3.1l-1.6-4.5-1.6,4.5ZM330.3,95.4h-4.2l-.9,2.5h-1.9l4.1-10.8h1.7l4.1,10.8h-2l-.9-2.5Z"></path>
        <path class="cls-1" d="M344.3,97.9h-1.9l-4.8-7.6v7.6h-1.9v-10.8h1.9l4.8,7.7v-7.7h1.9v10.8Z"></path>
        <path class="cls-1" d="M349.8,88.6v7.8h1.2c1,0,1.7-.3,2.3-.9.5-.6.8-1.5.8-2.6v-.6c0-1.2-.3-2.1-.8-2.7s-1.2-.9-2.2-.9h-1.3ZM348,97.9v-10.8h3.2c1,0,1.8.2,2.5.6.7.4,1.3,1,1.7,1.8.4.8.6,1.7.6,2.7v.5c0,1-.2,1.9-.6,2.7-.4.8-1,1.4-1.7,1.8-.8.4-1.6.6-2.6.6h-3.1Z"></path>
        <path class="cls-1" d="M221.1,113.3c0-.5-.2-.8-.5-1.1-.3-.3-.9-.5-1.8-.8-.9-.3-1.6-.6-2.1-.9-1-.6-1.5-1.4-1.5-2.4s.4-1.6,1.1-2.1c.7-.6,1.6-.8,2.8-.8s1.4.1,2,.4,1,.7,1.4,1.2c.3.5.5,1.1.5,1.7h-1.9c0-.6-.2-1-.5-1.3-.4-.3-.9-.5-1.5-.5s-1.1.1-1.4.4c-.3.3-.5.6-.5,1.1s.2.7.5,1c.4.3,1,.5,1.8.8.8.2,1.5.5,2,.9.5.3.9.7,1.1,1.1.2.4.4.9.4,1.4,0,.9-.3,1.6-1,2.1-.7.5-1.6.8-2.8.8s-1.5-.1-2.1-.4c-.7-.3-1.2-.7-1.5-1.2-.4-.5-.5-1.1-.5-1.8h1.9c0,.6.2,1.1.6,1.4.4.3,1,.5,1.7.5s1.1-.1,1.5-.4c.3-.3.5-.6.5-1Z"></path>
        <path class="cls-1" d="M233.8,106.8h-3.4v9.3h-1.9v-9.3h-3.3v-1.5h8.5v1.5Z"></path>
        <path class="cls-1" d="M244.6,105.3v7.2c0,1.1-.4,2-1.1,2.7-.7.7-1.7,1-2.9,1s-2.2-.3-2.9-1c-.7-.7-1.1-1.6-1.1-2.7v-7.2h1.9v7.2c0,.7.2,1.3.5,1.6.4.4.9.6,1.6.6,1.4,0,2.2-.8,2.2-2.3v-7.1h1.9Z"></path>
        <path class="cls-1" d="M249.9,106.8v7.8h1.2c1,0,1.7-.3,2.3-.9.5-.6.8-1.5.8-2.6v-.6c0-1.2-.3-2.1-.8-2.7-.5-.6-1.2-.9-2.2-.9h-1.3ZM248,116.1v-10.8h3.2c1,0,1.8.2,2.5.6.7.4,1.3,1,1.7,1.8.4.8.6,1.7.6,2.7v.5c0,1-.2,1.9-.6,2.7-.4.8-1,1.4-1.7,1.8-.8.4-1.6.6-2.6.6h-3.1Z"></path>
        <path class="cls-1" d="M265.6,111.3h-4.4v3.3h5.2v1.5h-7v-10.8h7v1.5h-5.1v3h4.4v1.5Z"></path>
        <path class="cls-1" d="M277.9,116.1h-1.9l-4.8-7.6v7.6h-1.9v-10.8h1.9l4.8,7.7v-7.7h1.9v10.8Z"></path>
        <path class="cls-1" d="M289.3,106.8h-3.4v9.3h-1.9v-9.3h-3.3v-1.5h8.5v1.5Z"></path>
        <path class="cls-1" d="M221.8,129.5h-4.4v3.3h5.2v1.5h-7v-10.8h7v1.5h-5.1v3h4.4v1.5Z"></path>
        <path class="cls-1" d="M227.9,123.5l3.1,8.3,3.1-8.3h2.4v10.8h-1.9v-3.5l.2-4.7-3.2,8.3h-1.3l-3.2-8.3.2,4.7v3.5h-1.9v-10.8h2.4Z"></path>
        <path class="cls-1" d="M242,128.8h2.2c.7,0,1.2-.2,1.5-.5.3-.3.5-.8.5-1.4s-.2-1-.5-1.4c-.4-.3-.8-.5-1.5-.5h-2.3v3.8ZM242,130.3v4h-1.9v-10.8h4.1c1.2,0,2.2.3,2.9.9.7.6,1.1,1.5,1.1,2.5s-.3,1.9-1,2.5c-.7.6-1.7.9-2.9.9h-2.2Z"></path>
        <path class="cls-1" d="M258,128.6c0-1.2-.2-2.1-.7-2.7-.5-.6-1.1-1-1.9-1s-1.4.3-1.9,1c-.5.6-.7,1.5-.7,2.7v.6c0,1.2.2,2.1.7,2.7.5.6,1.1,1,1.9,1s1.5-.3,1.9-.9c.4-.6.7-1.6.7-2.8v-.6ZM259.9,129.2c0,1.1-.2,2-.5,2.8-.4.8-.9,1.4-1.6,1.8-.7.4-1.5.6-2.3.6s-1.7-.2-2.3-.6c-.7-.4-1.2-1-1.6-1.8-.4-.8-.6-1.7-.6-2.7v-.6c0-1,.2-2,.6-2.8.4-.8.9-1.4,1.6-1.8.7-.4,1.5-.6,2.3-.6s1.7.2,2.3.6c.7.4,1.2,1,1.6,1.8.4.8.6,1.7.6,2.8v.6Z"></path>
        <path class="cls-1" d="M271.6,131.6l1.7-8.1h1.9l-2.5,10.8h-1.8l-2-7.9-2.1,7.9h-1.8l-2.5-10.8h1.9l1.7,8.1,2.1-8.1h1.6l2,8.1Z"></path>
        <path class="cls-1" d="M284.2,129.5h-4.4v3.3h5.2v1.5h-7v-10.8h7v1.5h-5.1v3h4.4v1.5Z"></path>
        <path class="cls-1" d="M289.8,128.6h1.9c.6,0,1.1-.2,1.5-.5.4-.3.5-.8.5-1.3s-.2-1-.5-1.3c-.3-.3-.8-.5-1.5-.5h-2v3.6ZM291.9,130.1h-2.1v4.1h-1.9v-10.8h3.8c1.2,0,2.2.3,2.9.8.7.6,1,1.4,1,2.4s-.2,1.3-.5,1.8c-.3.5-.8.9-1.5,1.1l2.4,4.5h0c0,0-2,0-2,0l-2.2-4.1Z"></path>
        <path class="cls-1" d="M301.3,123.5l3.1,8.3,3.1-8.3h2.4v10.8h-1.9v-3.5l.2-4.7-3.2,8.3h-1.3l-3.2-8.3.2,4.7v3.5h-1.9v-10.8h2.4Z"></path>
        <path class="cls-1" d="M319.8,129.5h-4.4v3.3h5.2v1.5h-7v-10.8h7v1.5h-5.1v3h4.4v1.5Z"></path>
        <path class="cls-1" d="M332.1,134.3h-1.9l-4.8-7.6v7.6h-1.9v-10.8h1.9l4.8,7.7v-7.7h1.9v10.8Z"></path>
        <path class="cls-1" d="M343.5,125h-3.4v9.3h-1.9v-9.3h-3.3v-1.5h8.5v1.5Z"></path>
        <path class="cls-1" d="M238.9,43.3h11v-.4l-8.9-17.2c2.6-1.2,4.4-2.8,5.6-4.7,1.2-2,1.8-4.4,1.8-7.4s-1.4-7.3-4.3-9.5c-2.9-2.2-6.8-3.4-11.9-3.4h-16.8v42.7h10.3v-15.1h5.6l7.5,15.1ZM225.8,8.5h6.5c1.9,0,3.4.5,4.4,1.6,1,1,1.5,2.5,1.5,4.3s-.5,3.3-1.5,4.3c-1,1-2.5,1.5-4.4,1.5h-6.5v-11.8ZM271,.6h-10.3v42.7h10.3V.6ZM304.1,35c-1,.7-2.3,1.1-4,1.1-2.7,0-4.6-.5-5.8-1.6-1.2-1.1-1.8-2.8-1.8-5.1h-10.3c0,2.8.7,5.3,2.1,7.5,1.4,2.2,3.5,3.9,6.3,5.1,2.8,1.2,5.9,1.9,9.4,1.9,4.9,0,8.8-1.1,11.6-3.2,2.8-2.1,4.2-5.1,4.2-8.8s-2.3-8.3-6.9-11c-1.9-1.1-4.3-2.1-7.3-3.1-3-.9-5-1.9-6.2-2.8-1.2-.9-1.8-1.9-1.8-3s.5-2.3,1.6-3.1c1.1-.8,2.5-1.2,4.4-1.2s3.3.5,4.3,1.4c1.1,1,1.6,2.3,1.6,4h10.3c0-2.6-.7-4.9-2-6.9-1.3-2-3.2-3.6-5.7-4.7C305.7.5,302.9,0,299.9,0s-6,.5-8.5,1.5c-2.5,1-4.5,2.4-5.9,4.2-1.4,1.8-2.1,3.9-2.1,6.3,0,4.8,2.8,8.5,8.3,11.2,1.7.8,3.9,1.7,6.6,2.6,2.7.9,4.5,1.8,5.6,2.6,1.1.8,1.6,2,1.6,3.5s-.5,2.4-1.5,3.1ZM353,17.5h-16.2v-9h19.2V.6h-29.5v42.7h29.4v-7.9h-19.1v-10.2h16.2v-7.6Z"></path>
        <path class="cls-1" d="M186.5,90.6h-26.2c-8.6,0-15.3-2.1-20.2-6.3-4.9-4.2-7.3-9.9-7.4-17.1,0-7.2,2.5-12.9,7.4-17.1,4.9-4.2,11.7-6.3,20.2-6.3h26.2v46.8ZM186.5,0v40.2h-32.6L128.9,0h-3.7v.9l25.1,40.2c-4.9.9-9.2,3-12.7,6.3,0,0,0,0,0,0-4.1,3.6-6.7,8-7.8,13.5,0,0,0,.2,0,.2,0,.1,0,.2,0,.4-.2,1.2-.4,2.5-.5,3.8h-40.3v3.5h40.3c0,1.3.2,2.6.5,3.8,0,.1,0,.2,0,.4,0,0,0,.2,0,.2,1.1,5.4,3.7,9.9,7.8,13.5,0,0,0,0,0,0,3.5,3.3,7.8,5.4,12.7,6.3l-25.1,40.2v.9h3.7l25-40.2h32.6v40.2h3.5V0h-3.5Z"></path>
      </g>
    </g>
  </g>
</svg>
