<svg xmlns="http://www.w3.org/2000/svg" xml:space="preserve" style="fill-rule:evenodd;clip-rule:evenodd;stroke-linecap:round;stroke-linejoin:round;stroke-miterlimit:5" viewBox="0 0 225 184"><path d="m81.207-11.319 67.402 134.804H13.804z" style="fill:#fad021" transform="matrix(1.54372 0 0 1.23498 -12.986 22.304)"/><path d="M85.779-14.892c-.985-1.97-2.713-3.168-4.572-3.168-1.86 0-3.588 1.198-4.573 3.168L9.232 119.913c-1.039 2.078-1.094 4.697-.144 6.84s2.756 3.472 4.716 3.472h134.805c1.96 0 3.766-1.329 4.716-3.472s.895-4.762-.143-6.84zm-4.572 3.573 67.402 134.804H13.804z" style="fill:#fad021" transform="matrix(1.54372 0 0 1.23498 -12.986 22.304)"/><path d="m81.207-11.319 67.402 134.804H13.804z" style="fill:none;stroke:#060500;stroke-width:5.95px" transform="matrix(1.41957 0 0 1.13566 -2.904 30.076)"/><path d="M1330 1040c-11-21-44-27-55-10-3 6-15 10-26 10-14 0-19-7-19-30s-5-31-24-36c-14-3-30-3-36 1-15 9-25-24-13-44 14-22 5-41-23-51-29-11-31-36-5-45 25-8 31-35 13-57-20-24-9-46 25-50 23-2 29-9 31-33 4-38 18-53 34-37 20 20 48 14 60-13 13-30 44-33 53-5 7 23 37 26 55 6 16-20 40-9 40 19 0 29 23 48 48 41 24-8 44 14 32 34-17 27-11 49 15 56 30 8 34 40 5 49-22 7-27 44-9 62 17 17 4 42-19 37-23-7-46 20-39 46 7 28-15 43-38 26-25-18-52-9-59 20-8 29-31 31-46 4m68-80c105-48 102-202-4-246-44-18-78-18-121 3-46 21-73 67-73 121 0 57 25 97 75 122s69 25 123 0" style="fill-rule:nonzero" transform="matrix(.1 0 0 -.1 4.861 202.952)"/><path d="M1097 1176c1-47 4-95 8-106 4-12 2-27-4-33-14-14-15-67-1-67 15 0 12-36-3-49-8-6-17-8-20-4-10 10-47-28-47-48 0-26-34-43-50-24s-54 19-70 1c-8-11-18-12-36-5-43 16-82 10-158-21l-74-31-22-107c-12-59-24-118-27-131-7-28-9-28 135 57l93 55 117-12c128-14 125-13 230-83 41-26 75-48 77-48 7 0 13 42 8 60-3 10-38 47-79 80-78 65-85 80-63 137 7 19 7 29 0 31-6 2-11 15-11 28 0 17 8 27 25 34 26 10 32 29 14 47-8 8-7 17 2 34 7 14 13 69 15 134 2 116-9 155-44 155-15 0-17-10-15-84" style="fill-rule:nonzero" transform="matrix(.1 0 0 -.1 4.861 202.952)"/><path d="M1196 1228c-4-18-6-44-6-57s-7-29-15-35c-11-9-13-25-7-81 6-61 10-70 27-70 18 0 20 6 17 53-3 43 0 56 14 67 11 7 20 28 21 47 1 18 4 49 5 68 3 31 0 35-23 38s-27-1-33-30" style="fill-rule:nonzero" transform="matrix(.1 0 0 -.1 4.861 202.952)"/><path d="M1305 1158c-22-11-42-25-43-30-2-4-11-16-20-25-18-17-25-53-11-53 13 0 63 21 69 28 3 4 17 15 33 25 19 13 27 26 27 47 0 35-3 36-55 8m-422-5c-7-3-13-13-13-22 0-22-31-51-54-51-21 0-32-28-17-43 14-14 15-64 1-72-17-10-11-35 8-35 23 0 62-40 62-63 0-18 25-23 35-7 3 6 22 10 41 10s34-4 34-10c0-5 9-10 20-10 14 0 20 7 20 23 0 29 29 57 58 57 22 0 30 24 12 35-14 8-13 58 1 72 16 16 4 43-19 43-22 0-52 30-52 52s-26 30-40 12c-16-18-59-18-74 0-6 7-17 12-23 9m100-75c48-25 62-82 31-126-37-53-120-48-150 10-39 75 44 156 119 116" style="fill-rule:nonzero" transform="matrix(.1 0 0 -.1 4.861 202.952)"/></svg>